<?xml version="1.0" standalone="no"?>
<!DOCTYPE svg PUBLIC "-//W3C//DTD SVG 20010904//EN"
 "http://www.w3.org/TR/2001/REC-SVG-20010904/DTD/svg10.dtd">
<svg version="1.0" xmlns="http://www.w3.org/2000/svg"
 width="512.000000pt" height="512.000000pt" viewBox="0 0 512.000000 512.000000"
 preserveAspectRatio="xMidYMid meet">
<metadata>
Created by potrace 1.14, written by Peter Selinger 2001-2017
</metadata>
<g transform="translate(0.000000,512.000000) scale(0.100000,-0.100000)"
fill="#000000" stroke="none">
<path d="M3318 4863 c-188 -262 -308 -451 -308 -488 0 -2 17 -9 38 -16 32 -10
133 -53 154 -65 3 -2 19 22 34 53 15 32 29 60 30 62 4 5 170 -96 234 -142 313
-228 545 -546 665 -912 55 -168 76 -303 80 -500 4 -202 -6 -297 -50 -472 -150
-590 -607 -1077 -1194 -1273 -107 -36 -94 -33 -221 -59 -133 -28 -184 -33
-355 -36 -150 -3 -279 8 -379 30 -12 3 -32 7 -46 9 -48 8 -220 59 -240 71 -5
3 2 31 16 63 14 31 28 62 30 68 4 10 -183 101 -190 93 -2 -2 -20 -37 -41 -78
-30 -59 -75 -196 -100 -301 -2 -8 -25 -95 -50 -194 -25 -98 -45 -179 -43 -181
2 -2 50 64 108 147 58 82 114 161 125 174 l20 25 105 -36 c108 -37 299 -79
405 -90 33 -4 74 -8 90 -10 17 -2 38 -4 47 -4 18 -1 16 -9 -27 -106 -32 -71
-45 -108 -39 -114 8 -8 371 -8 379 1 6 5 -26 116 -62 213 -2 6 20 11 49 13 29
1 109 11 177 23 770 129 1412 692 1627 1426 41 141 77 338 77 429 0 13 5 24
11 24 6 0 4 5 -4 10 -8 5 -10 10 -5 10 6 0 10 29 10 68 0 37 -4 70 -10 74 -6
5 -5 8 3 8 7 0 10 5 7 10 -4 6 -8 29 -10 53 -23 240 -57 393 -130 583 -68 175
-131 292 -241 445 -81 113 -100 135 -224 259 -128 128 -285 248 -436 332 -83
46 -112 67 -108 78 11 30 83 334 80 337 -2 2 -41 -49 -88 -114z"/>
<path d="M2417 4423 c-1 0 -34 -4 -73 -7 -40 -3 -78 -8 -85 -10 -8 -3 -33 -7
-56 -10 -123 -15 -320 -83 -472 -161 -550 -284 -898 -857 -893 -1470 1 -87 4
-122 17 -220 23 -177 95 -385 192 -556 217 -381 566 -646 1002 -759 220 -57
505 -59 746 -4 648 148 1140 660 1266 1316 31 164 31 454 -1 578 -5 19 -11 47
-14 61 -19 112 -89 294 -164 430 -99 178 -229 331 -409 479 -47 39 -195 129
-278 169 -222 109 -434 158 -708 164 -38 1 -69 1 -70 0z m263 -77 c30 -4 75
-12 100 -17 25 -5 56 -12 70 -14 76 -16 239 -76 337 -126 142 -72 251 -150
368 -264 142 -139 219 -244 305 -414 44 -89 115 -290 125 -356 3 -22 8 -47 10
-55 19 -62 29 -365 14 -455 -5 -33 -12 -76 -14 -95 -32 -213 -151 -479 -305
-680 -216 -282 -581 -514 -910 -580 -25 -5 -56 -12 -70 -15 -130 -28 -406 -28
-555 0 -668 126 -1167 664 -1243 1340 -11 99 -5 314 12 405 23 130 26 142 41
190 122 399 382 730 733 933 98 57 310 145 388 162 10 2 51 10 90 19 39 8 100
18 135 22 35 3 65 7 66 8 6 5 255 -2 303 -8z"/>
<path d="M2501 4321 c-8 -5 -11 -17 -7 -29 5 -16 14 -20 39 -17 18 2 91 4 162
5 161 2 121 19 -87 36 -45 3 -85 8 -88 9 -3 2 -12 0 -19 -4z"/>
<path d="M2349 4304 c-21 -12 -110 -41 -131 -44 -4 0 -29 -7 -55 -15 -49 -15
-73 -12 -31 4 24 9 57 41 42 41 -4 0 -21 -5 -38 -10 -17 -6 -57 -17 -88 -26
-49 -13 -56 -18 -53 -36 3 -11 6 -23 9 -25 3 -3 47 5 98 17 51 12 100 23 108
24 8 1 31 5 50 9 36 7 60 10 163 22 45 6 57 11 53 22 -3 8 -6 19 -6 24 0 14
-94 8 -121 -7z"/>
<path d="M2526 4251 c-3 -4 10 -22 28 -40 28 -27 39 -32 63 -27 15 4 39 9 53
12 14 3 83 15 154 28 71 12 122 25 114 28 -23 9 -407 8 -412 -1z"/>
<path d="M2390 4241 c-27 -5 -31 -8 -17 -13 13 -6 17 -19 17 -57 l0 -49 48 14
c26 8 64 19 85 25 l37 10 -32 39 c-35 42 -54 46 -138 31z"/>
<path d="M1910 4206 c-133 -55 -360 -187 -360 -209 0 -5 16 1 34 13 76 46 196
101 293 132 97 31 102 34 103 61 0 32 0 32 -70 3z"/>
<path d="M2908 4225 c-4 -5 -74 -19 -143 -30 -41 -7 -127 -25 -145 -32 -31
-10 35 -33 68 -24 20 6 34 5 43 -3 11 -10 32 -3 106 35 51 27 89 50 84 53 -4
3 -10 3 -13 1z"/>
<path d="M2948 4174 c-27 -25 -48 -47 -48 -49 0 -4 61 12 66 18 5 5 35 77 32
77 -2 0 -24 -21 -50 -46z"/>
<path d="M2861 4165 c-85 -45 -121 -71 -121 -88 0 -5 11 -6 25 -3 21 5 25 3
25 -16 0 -21 0 -21 15 -2 19 25 19 34 0 34 -8 0 -15 4 -15 9 0 17 20 23 36 11
12 -10 23 -5 63 31 39 35 70 72 58 68 -1 0 -40 -20 -86 -44z"/>
<path d="M3001 4174 c-9 -26 -10 -38 -2 -48 9 -11 5 -20 -17 -42 -37 -37 -55
-72 -48 -90 8 -22 26 -7 26 21 0 14 9 29 21 35 11 7 18 14 15 17 -9 9 25 43
42 43 9 0 12 6 7 18 -3 9 -9 29 -12 45 -8 40 -18 41 -32 1z"/>
<path d="M3102 4143 c23 -32 45 -59 49 -61 4 -2 33 -37 64 -77 51 -67 61 -75
91 -75 19 0 34 3 34 8 -1 18 -256 262 -275 262 -3 0 13 -26 37 -57z"/>
<path d="M3055 4160 c9 -31 11 -33 24 -29 5 2 0 15 -11 29 l-21 25 8 -25z"/>
<path d="M3160 4162 c0 -4 28 -25 62 -47 35 -22 98 -66 140 -97 76 -57 115
-75 88 -43 -30 36 -290 204 -290 187z"/>
<path d="M1890 4129 c-47 -16 -140 -56 -207 -89 -103 -50 -123 -64 -123 -83 0
-26 40 -114 70 -155 l22 -30 97 62 c53 35 149 89 214 120 l118 58 -27 37 c-15
20 -29 38 -30 40 -2 2 -29 5 -60 7 -75 4 -97 24 -27 24 34 0 53 5 56 14 6 14
-1 27 -12 25 -3 0 -44 -14 -91 -30z"/>
<path d="M2510 4138 c-108 -32 -105 -30 -48 -42 17 -4 25 -11 22 -19 -3 -8 0
-26 6 -42 8 -22 8 -30 -2 -36 -7 -4 -9 -11 -5 -15 8 -9 38 16 32 26 -3 5 2 15
10 23 17 18 20 37 5 37 -22 0 -8 17 23 28 58 21 98 13 75 -15 -16 -20 -2 -27
21 -11 20 14 20 16 4 30 -10 8 -31 24 -48 35 -30 20 -30 20 -95 1z"/>
<path d="M2690 4110 c-13 -9 -13 -10 0 -10 8 0 22 5 30 10 13 9 13 10 0 10 -8
0 -22 -5 -30 -10z"/>
<path d="M3276 4039 c28 -30 60 -64 70 -76 18 -22 64 -32 64 -14 0 5 -42 39
-92 76 l-93 67 51 -53z"/>
<path d="M2060 4073 c0 -5 5 -15 10 -23 9 -13 11 -13 20 0 15 22 12 30 -10 30
-11 0 -20 -3 -20 -7z"/>
<path d="M2841 4066 c-16 -19 -11 -29 8 -17 7 5 12 14 9 21 -3 9 -8 7 -17 -4z"/>
<path d="M2666 4061 c-14 -5 -16 -10 -8 -15 9 -6 9 -12 -2 -27 -8 -12 -12 -33
-10 -49 4 -23 1 -28 -13 -26 -10 2 -22 11 -28 22 -5 10 -17 18 -25 18 -8 -1
-25 -2 -37 -3 -13 0 -23 -6 -23 -12 0 -7 10 -9 24 -7 17 3 31 -2 44 -16 55
-61 54 -61 122 12 l62 66 -28 23 c-30 24 -46 27 -78 14z m68 -53 c-16 -29 -26
-37 -40 -31 -21 8 -17 22 9 33 31 12 39 12 31 -2z"/>
<path d="M2795 4020 c-3 -5 -1 -10 4 -10 6 0 11 5 11 10 0 6 -2 10 -4 10 -3 0
-8 -4 -11 -10z"/>
<path d="M2850 4020 c8 -5 22 -10 30 -10 13 0 13 1 0 10 -8 5 -22 10 -30 10
-13 0 -13 -1 0 -10z"/>
<path d="M2790 3990 c0 -6 -4 -9 -8 -6 -12 7 -25 -5 -44 -41 -15 -29 -15 -34
-1 -48 12 -12 13 -19 3 -30 -10 -12 -9 -15 3 -15 25 0 48 40 36 62 -23 42 42
82 88 53 18 -12 22 -12 27 1 8 22 8 22 -16 21 -13 0 -38 3 -55 7 -23 5 -33 4
-33 -4z"/>
<path d="M1950 3926 c-124 -62 -263 -147 -277 -168 -3 -6 30 -47 75 -90 l81
-78 39 27 c50 36 92 94 92 127 0 14 18 52 40 83 22 32 40 61 40 66 0 4 11 25
25 47 42 66 42 66 -115 -14z"/>
<path d="M2990 3981 c0 -5 7 -11 15 -15 8 -3 15 -1 15 3 0 5 -7 11 -15 15 -8
3 -15 1 -15 -3z"/>
<path d="M2907 3948 c-4 -15 2 -33 19 -56 20 -25 25 -41 20 -62 -4 -22 1 -37
18 -57 13 -15 23 -36 23 -45 0 -22 -6 -22 -29 -1 -26 24 -32 11 -8 -20 28 -35
26 -49 -5 -37 -14 5 -25 6 -25 1 0 -5 8 -12 17 -15 26 -10 2 -25 -30 -19 -19
4 -32 15 -38 31 -16 42 -29 53 -49 42 -10 -5 -20 -17 -24 -25 -5 -13 -1 -15
14 -10 24 8 82 -47 74 -70 -6 -16 31 -39 51 -32 7 3 17 1 22 -4 10 -10 113
-38 141 -39 19 0 16 125 -4 159 -15 26 -15 30 1 61 17 32 17 33 -4 27 -24 -6
-30 20 -9 41 9 9 8 15 -7 25 -10 8 -15 19 -11 25 4 7 -1 25 -11 42 -13 22 -31
34 -69 45 -67 19 -71 19 -77 -7z"/>
<path d="M1460 3913 c-97 -70 -240 -231 -240 -270 0 -23 40 -115 68 -156 l18
-27 75 77 c81 85 126 125 206 185 l51 39 -34 50 c-19 28 -42 73 -51 100 -10
27 -20 49 -23 49 -3 0 -34 -22 -70 -47z"/>
<path d="M3500 3911 c25 -22 47 -37 50 -35 7 8 -67 74 -82 74 -7 0 7 -18 32
-39z"/>
<path d="M3415 3928 c-11 -6 -21 -12 -23 -14 -2 -1 19 -31 46 -66 62 -79 112
-159 157 -247 19 -38 39 -72 44 -75 11 -7 71 13 71 23 0 4 -13 20 -30 34 -21
19 -30 36 -30 57 0 80 -62 176 -170 263 -38 29 -49 34 -65 25z"/>
<path d="M3313 3912 l-33 -3 15 -35 c8 -19 23 -48 34 -63 18 -24 18 -30 5 -42
-12 -13 -10 -25 17 -99 17 -47 37 -106 45 -131 l14 -46 50 3 c64 3 143 14 149
20 9 9 -61 138 -129 240 -104 155 -111 162 -167 156z m124 -230 c11 9 20 5 41
-16 l27 -27 -30 -26 -29 -26 -32 39 c-25 29 -30 42 -22 52 8 9 14 10 21 3 7
-7 15 -7 24 1z"/>
<path d="M2823 3868 c-6 -7 -13 -25 -17 -39 -4 -18 -14 -28 -31 -31 -14 -3
-28 -2 -31 3 -6 10 -36 0 -46 -15 -6 -10 -15 -12 -78 -21 -57 -9 -99 -45 -67
-58 120 -52 183 -77 192 -77 10 0 106 222 105 243 0 11 -17 8 -27 -5z m-72
-115 c7 -20 6 -28 -3 -35 -22 -13 -32 -9 -45 18 -10 22 -9 26 10 34 12 5 23 9
25 9 1 1 7 -11 13 -26z"/>
<path d="M2850 3814 c-11 -26 -20 -53 -20 -60 0 -21 22 -16 46 9 19 20 20 26
9 47 -7 13 -11 30 -8 37 3 7 3 13 0 13 -4 0 -15 -21 -27 -46z"/>
<path d="M1550 3670 c-83 -69 -230 -217 -230 -232 0 -11 191 -202 224 -223 28
-18 29 -18 42 0 7 10 24 30 36 44 13 15 49 56 80 93 43 49 65 86 87 144 l29
79 -84 82 c-46 46 -87 83 -91 83 -5 0 -46 -32 -93 -70z"/>
<path d="M3285 3697 c-4 -14 -15 -27 -25 -30 -14 -3 -18 -18 -22 -66 -6 -85
-16 -91 -66 -40 l-42 41 0 -40 c0 -45 1 -45 130 -57 36 -4 77 -8 92 -10 16 -2
30 0 32 3 7 12 -69 215 -81 219 -7 3 -15 -7 -18 -20z"/>
<path d="M2550 3670 c0 -5 10 -21 23 -36 12 -14 22 -30 22 -36 0 -5 15 -22 33
-36 28 -23 32 -31 24 -52 -12 -36 -9 -65 7 -65 15 0 18 4 60 95 l29 64 -91 38
c-100 41 -107 43 -107 28z"/>
<path d="M1164 3573 c-85 -144 -181 -386 -168 -427 24 -81 64 -143 64 -101 0
27 110 229 171 315 60 83 61 85 44 110 -9 14 -30 53 -46 88 -16 34 -31 62 -33
62 -2 0 -17 -21 -32 -47z"/>
<path d="M2742 3546 c-15 -33 -11 -44 7 -22 7 8 11 23 9 32 -2 14 -6 11 -16
-10z"/>
<path d="M2964 3506 c2 -25 12 -43 35 -61 17 -15 29 -30 26 -35 -3 -4 2 -10
10 -14 25 -9 17 -31 -21 -58 -31 -22 -40 -25 -67 -16 -62 19 -74 20 -113 2
-35 -16 -37 -18 -15 -22 13 -2 27 1 30 7 4 5 15 8 26 6 11 -2 26 -4 33 -4 20
-1 14 -22 -8 -28 -26 -7 -25 -11 11 -49 l30 -31 -50 -22 c-27 -11 -52 -21 -55
-21 -15 0 -4 27 15 38 27 17 19 26 -12 13 -13 -5 -36 -12 -51 -15 -15 -3 -29
-15 -33 -25 -3 -11 -16 -21 -28 -23 -15 -3 -5 -9 33 -21 74 -22 172 -47 242
-61 l56 -12 7 35 c6 30 15 83 18 101 2 16 -18 40 -33 40 -10 0 -30 4 -44 10
l-26 9 21 35 c20 34 57 60 46 32 -3 -7 5 -23 19 -35 13 -11 24 -20 25 -18 5
16 9 59 15 143 l6 100 -59 13 c-32 7 -66 15 -75 17 -14 4 -17 -1 -14 -30z"/>
<path d="M3683 3518 c-38 -12 -42 -24 -13 -33 11 -3 20 -13 20 -22 0 -8 23
-37 50 -64 28 -27 50 -52 50 -55 0 -9 -42 -68 -54 -76 -7 -5 -7 -18 1 -40 6
-18 14 -51 18 -73 7 -50 12 -54 53 -43 46 13 42 40 -13 78 -49 34 -55 49 -26
67 21 13 30 50 37 146 4 58 1 71 -18 97 -23 32 -47 36 -105 18z"/>
<path d="M3129 3458 c-1 -42 -2 -58 -13 -168 -7 -65 -16 -124 -31 -201 -7 -36
-6 -37 32 -44 86 -16 151 -24 260 -31 l93 -5 -5 38 c-2 21 -7 65 -10 98 -9
102 -38 258 -57 308 -10 25 -15 27 -67 28 -31 0 -63 2 -71 3 -8 2 -41 6 -72
10 l-58 7 -1 -43z"/>
<path d="M3573 3490 c-23 -5 -68 -11 -100 -13 -43 -3 -57 -7 -54 -18 16 -64
31 -134 37 -175 3 -27 8 -52 10 -55 3 -6 14 -114 19 -189 1 -24 4 -25 66 -24
35 0 93 3 127 8 l64 7 -6 35 c-4 19 -3 34 2 34 6 0 4 25 -3 58 -24 111 -35
140 -55 145 -17 4 -19 12 -16 51 2 33 -3 60 -20 96 -13 27 -24 50 -26 49 -2
-1 -22 -5 -45 -9z"/>
<path d="M2465 3421 l-39 -6 27 -12 c15 -7 27 -17 27 -22 0 -5 14 -14 30 -20
17 -5 30 -6 30 -2 0 9 -30 72 -33 70 -1 -1 -20 -5 -42 -8z"/>
<path d="M1273 3383 c-71 -91 -159 -245 -195 -341 l-17 -42 58 -73 c64 -80
173 -187 190 -187 6 0 11 5 11 12 0 25 121 258 178 342 l61 89 -39 28 c-45 33
-200 188 -200 201 0 18 -20 6 -47 -29z"/>
<path d="M3682 3410 c3 -8 14 -41 23 -72 18 -55 44 -72 30 -19 -4 14 -8 31 -9
37 -1 5 -12 23 -25 40 -13 16 -22 22 -19 14z"/>
<path d="M1729 3353 c-73 -79 -139 -160 -139 -169 1 -11 114 -94 128 -94 6 0
12 -4 14 -8 5 -12 108 -73 109 -64 1 4 0 11 -1 17 -1 5 -4 39 -7 75 -2 36 -9
78 -15 93 -8 21 -8 34 2 53 10 18 11 27 2 36 -6 6 -14 10 -16 7 -5 -5 -18
-113 -25 -211 -1 -5 -6 -8 -12 -8 -8 0 -10 17 -6 54 3 34 1 58 -6 65 -8 8 -7
18 5 39 10 16 13 33 9 41 -5 7 -3 32 4 55 20 67 5 73 -46 19z"/>
<path d="M1513 3083 c-96 -145 -197 -357 -177 -372 5 -3 43 -31 84 -62 76 -57
272 -179 288 -179 4 0 23 37 41 83 19 45 57 130 86 188 l51 106 -34 37 c-29
32 -33 42 -28 74 l6 37 -123 80 c-67 44 -126 81 -132 83 -5 1 -33 -33 -62 -75z"/>
<path d="M3889 3143 c0 -5 -3 -21 -5 -36 -5 -27 -4 -27 18 -16 42 22 49 30 37
45 -12 15 -48 19 -50 7z"/>
<path d="M2645 3110 c-10 -12 -25 -18 -32 -15 -9 3 -19 -8 -28 -29 -8 -19 -23
-37 -32 -40 -12 -4 -35 -50 -68 -139 -42 -110 -49 -136 -38 -146 20 -19 202
-78 321 -105 9 -2 35 -9 57 -15 22 -6 56 -13 76 -16 33 -5 37 -3 47 22 33 85
112 395 103 405 -3 3 -31 11 -61 17 -83 16 -87 17 -201 50 -59 17 -111 31
-116 31 -6 0 -18 -9 -28 -20z"/>
<path d="M980 3118 c-5 -17 -6 -24 -14 -68 -5 -25 -10 -54 -13 -65 -8 -36 -11
-355 -4 -360 4 -2 8 1 8 8 2 67 29 196 64 303 l20 61 -24 49 c-14 27 -27 56
-30 64 -3 8 -6 12 -7 8z"/>
<path d="M3911 3073 c-42 -25 -43 -26 -39 -74 6 -61 -14 -85 -56 -70 -24 10
-26 9 -26 -18 l0 -29 48 23 c26 13 58 35 71 49 26 29 41 32 60 14 11 -11 12
-4 6 37 -4 28 -8 58 -7 67 1 28 -12 28 -57 1z"/>
<path d="M2078 3039 c-9 -5 -15 -16 -12 -23 3 -8 -4 -16 -16 -19 -16 -4 -37
-39 -44 -75 -1 -2 62 -32 139 -67 110 -50 142 -61 150 -51 15 19 66 8 96 -20
l26 -25 18 48 c9 26 27 75 40 108 13 33 26 71 30 84 l7 25 -33 -22 c-28 -17
-36 -30 -42 -69 -16 -88 -17 -93 -32 -93 -17 0 -30 58 -20 90 5 16 2 23 -14
27 -12 3 -21 9 -21 14 0 11 -60 49 -78 49 -7 0 -10 -5 -7 -10 11 -17 -48 0
-71 21 -22 21 -87 25 -116 8z"/>
<path d="M3056 2943 c-16 -71 -51 -198 -93 -334 -5 -16 -2 -17 82 -33 18 -3
113 -16 160 -22 11 -1 66 -5 121 -9 l101 -7 6 25 c15 57 28 180 33 300 l5 127
-33 1 c-74 1 -234 16 -268 24 -8 2 -33 7 -55 10 l-40 5 -19 -87z"/>
<path d="M3710 3009 c-19 -5 -75 -11 -125 -15 -49 -3 -91 -7 -93 -8 -1 -2 -4
-58 -6 -124 -4 -108 -17 -233 -32 -299 -4 -22 -2 -23 59 -23 36 0 84 3 109 6
44 6 45 8 61 58 9 28 28 64 43 79 46 49 52 72 48 168 -2 50 -8 98 -14 108 -5
10 -7 21 -4 24 3 3 2 12 -3 19 -6 11 -17 12 -43 7z"/>
<path d="M1031 2906 c-23 -75 -49 -206 -57 -286 -3 -30 -7 -60 -9 -67 -2 -6
13 -31 33 -55 67 -80 229 -234 238 -225 2 1 4 40 5 86 2 82 28 237 52 308 l13
38 -86 82 c-47 45 -101 104 -120 132 -19 27 -38 50 -42 51 -4 0 -16 -29 -27
-64z"/>
<path d="M2010 2880 c6 -11 8 -24 5 -29 -7 -12 46 -50 83 -60 21 -6 34 -4 50
9 24 20 28 30 12 30 -6 0 -34 12 -63 26 -28 14 -62 30 -75 35 -20 8 -22 7 -12
-11z"/>
<path d="M1896 2823 c-12 -13 -166 -353 -166 -367 0 -7 211 -107 327 -156
l118 -49 30 29 c17 16 37 36 46 44 16 15 55 124 46 132 -2 2 -15 0 -28 -5 -19
-7 -30 -4 -50 13 -14 11 -29 29 -32 39 -4 9 -13 17 -22 17 -11 0 -15 11 -15
44 0 38 -5 49 -34 73 -18 15 -41 45 -51 66 -10 22 -25 41 -34 44 -50 16 -73
28 -100 53 -16 16 -32 26 -35 23z"/>
<path d="M2195 2763 c-48 -57 -49 -62 -20 -73 15 -6 31 -10 36 -10 6 0 16 -15
24 -32 11 -28 11 -37 -1 -60 -8 -15 -14 -34 -14 -42 0 -23 42 -65 69 -68 22
-3 27 6 67 112 24 63 43 120 43 126 1 7 -18 20 -41 29 -24 9 -63 25 -88 35
l-45 18 -30 -35z"/>
<path d="M2313 2792 c-8 -5 4 -13 32 -23 42 -15 43 -15 32 3 -7 10 -15 18 -19
18 -3 0 -12 2 -20 5 -7 3 -18 1 -25 -3z"/>
<path d="M2414 2696 c-7 -19 3 -36 22 -36 16 0 19 -16 5 -25 -5 -3 -16 2 -24
10 -14 13 -17 10 -33 -33 -9 -26 -23 -62 -31 -81 -14 -35 -17 -93 -6 -104 3
-4 15 1 25 10 11 10 29 18 41 19 12 1 29 4 37 7 8 3 25 7 38 10 l22 5 -20 -28
c-13 -18 -16 -31 -10 -35 6 -3 13 1 16 9 10 26 44 30 67 8 12 -12 45 -26 72
-33 52 -13 88 -36 80 -50 -3 -4 8 -15 24 -25 16 -10 34 -28 40 -41 6 -12 15
-23 20 -23 12 0 138 307 129 315 -2 2 -43 13 -93 24 -100 24 -164 41 -273 77
-55 17 -71 19 -62 9 20 -24 -32 -19 -58 6 -19 17 -23 18 -28 5z m199 -75 c15
-6 26 -15 23 -20 -6 -10 -89 2 -131 20 -26 10 -27 13 -10 17 11 2 24 8 29 13
5 4 20 2 35 -5 14 -8 39 -19 54 -25z m87 -51 c0 -5 -7 -10 -15 -10 -8 0 -15 5
-15 10 0 6 7 10 15 10 8 0 15 -4 15 -10z"/>
<path d="M1315 2678 c-15 -49 -35 -130 -40 -168 -3 -25 -8 -56 -10 -70 -9 -57
-8 -176 0 -190 18 -27 319 -220 344 -220 5 0 11 26 14 58 8 68 14 103 29 157
5 22 12 49 14 60 2 12 12 47 23 78 l20 57 -39 25 c-22 14 -42 25 -44 25 -9 0
-180 112 -239 156 -63 48 -66 50 -72 32z"/>
<path d="M2915 2476 c-21 -55 -50 -129 -66 -163 l-28 -63 39 -21 c21 -12 42
-31 48 -43 10 -24 10 -65 -1 -83 -10 -16 51 -51 109 -62 49 -8 86 -11 198 -14
l59 -2 44 115 c36 93 117 370 110 376 -1 1 -42 5 -92 8 -80 6 -175 17 -285 32
-19 3 -49 9 -66 14 l-32 8 -37 -102z"/>
<path d="M3518 2522 c-64 -3 -68 -4 -74 -30 -37 -160 -122 -422 -145 -446 -22
-24 -3 -28 107 -22 64 3 119 8 122 10 4 2 32 7 62 11 30 4 58 9 62 11 4 3 16
35 27 71 17 56 18 70 7 83 -15 17 -30 100 -27 145 3 35 3 85 0 138 -3 36 -4
37 -38 35 -20 -2 -66 -4 -103 -6z"/>
<path d="M974 2470 c21 -139 144 -432 194 -463 15 -8 36 -24 47 -34 11 -10 34
-29 51 -41 l32 -22 -9 38 c-5 20 -11 44 -13 52 -15 56 -25 114 -31 175 -7 69
-8 71 -53 105 -53 40 -154 139 -195 190 l-28 35 5 -35z"/>
<path d="M1702 2358 c-36 -124 -45 -165 -58 -258 -12 -85 -13 -83 51 -115 98
-50 224 -106 317 -140 l86 -32 16 56 c9 31 27 89 40 129 l24 74 -30 34 c-30
34 -30 41 2 79 9 11 16 26 16 33 -1 8 -69 43 -156 81 -85 37 -183 82 -217 99
-34 18 -64 32 -66 32 -2 0 -14 -33 -25 -72z"/>
<path d="M2310 2406 c0 -2 -7 -20 -15 -40 -8 -20 -11 -36 -7 -36 5 0 16 18 25
40 8 22 11 40 6 40 -5 0 -9 -2 -9 -4z"/>
<path d="M1260 2208 c1 -36 22 -160 39 -228 26 -99 16 -89 210 -207 57 -35
107 -63 111 -63 4 0 4 17 -1 38 -4 20 -8 38 -9 40 0 1 0 51 0 110 0 103 -1
109 -22 120 -67 33 -155 88 -300 185 -21 14 -28 16 -28 5z"/>
<path d="M3823 2199 c-39 -25 -93 -41 -93 -28 0 5 -4 9 -8 9 -7 0 -45 -112
-39 -116 1 0 29 10 62 23 56 21 63 27 88 78 15 30 26 55 24 54 -1 0 -16 -10
-34 -20z"/>
<path d="M3724 2059 l-51 -19 -33 -93 c-18 -50 -39 -105 -47 -122 l-15 -30 34
35 c57 58 189 251 171 249 -4 0 -31 -9 -59 -20z"/>
<path d="M2167 1982 c-9 -31 -23 -83 -32 -116 -9 -32 -15 -59 -13 -61 2 -1 37
-13 79 -27 l75 -24 16 37 c15 36 15 38 -6 57 -11 11 -33 27 -47 36 -28 18 -50
75 -44 118 6 52 -13 38 -28 -20z"/>
<path d="M3610 2029 c-63 -14 -193 -27 -281 -28 l-46 -1 -37 -77 c-21 -43 -66
-128 -102 -189 -35 -61 -64 -113 -64 -116 0 -7 166 0 258 12 50 7 91 18 103
28 64 52 101 96 120 139 28 63 90 235 87 238 -2 1 -19 -2 -38 -6z"/>
<path d="M3024 2011 c3 -5 25 -12 47 -16 26 -5 55 -20 80 -42 34 -31 37 -38
27 -56 -14 -27 -28 -38 -94 -76 -48 -28 -61 -46 -78 -106 -3 -11 -26 -33 -51
-50 -24 -16 -45 -33 -45 -36 0 -8 139 -15 144 -7 62 90 210 368 201 376 -2 3
-37 6 -77 8 -40 2 -93 6 -116 9 -27 4 -41 2 -38 -4z"/>
<path d="M1632 1858 c3 -73 9 -141 13 -151 7 -16 179 -106 245 -127 14 -5 49
-18 78 -29 39 -16 54 -18 56 -9 19 63 67 250 64 252 -2 1 -64 26 -138 56 -74
29 -174 73 -222 96 -48 24 -91 44 -94 44 -4 0 -4 -60 -2 -132z"/>
<path d="M1206 1928 c54 -75 138 -177 146 -177 4 -1 1 14 -6 32 -8 17 -20 47
-27 65 -7 21 -32 47 -70 74 -33 22 -59 45 -59 49 0 5 -5 9 -11 9 -6 0 6 -24
27 -52z"/>
<path d="M1346 1833 c4 -16 15 -45 25 -65 11 -21 19 -43 19 -50 0 -8 19 -29
41 -48 23 -19 47 -39 53 -44 41 -39 207 -150 205 -138 0 4 -15 49 -32 101
l-32 95 -95 54 c-52 30 -116 70 -143 88 l-47 34 6 -27z"/>
<path d="M2101 1756 c-6 -17 -19 -68 -31 -113 -11 -45 -23 -88 -26 -97 -4 -10
5 -20 26 -31 18 -9 33 -15 34 -13 1 2 17 24 36 50 18 26 39 49 46 52 16 6 78
125 70 134 -4 3 -37 15 -76 28 l-69 22 -10 -32z"/>
<path d="M1670 1610 c42 -140 46 -145 118 -179 37 -16 97 -41 134 -54 l66 -25
7 44 c3 24 6 46 6 49 0 2 4 18 9 34 8 30 8 30 -63 57 -40 15 -122 51 -183 80
l-111 52 17 -58z"/>
<path d="M2754 1610 c-44 -10 -55 -19 -52 -42 2 -16 -3 -22 -25 -25 -15 -2
-54 -17 -86 -33 -75 -38 -141 -40 -141 -3 0 8 -5 11 -10 8 -7 -4 -6 -13 1 -26
15 -28 -3 -47 -41 -44 -51 4 -33 -13 23 -21 28 -4 54 -8 57 -9 3 -1 32 -5 65
-9 33 -5 68 -10 77 -12 10 -1 66 -6 125 -9 60 -4 113 -8 120 -10 11 -4 145
174 159 210 5 12 -2 15 -32 16 -22 0 -49 2 -61 5 -43 8 -149 10 -179 4z"/>
<path d="M3369 1615 c-7 -6 -146 -17 -234 -19 l-73 -1 -76 -107 c-42 -59 -76
-109 -76 -112 0 -8 55 3 95 19 96 40 207 99 286 151 97 65 94 62 87 69 -2 3
-7 3 -9 0z"/>
<path d="M2020 1430 c-6 -38 -9 -74 -5 -80 11 -17 25 -11 25 11 0 12 11 44 25
72 27 52 23 66 -17 67 -12 0 -19 -16 -28 -70z"/>
<path d="M2330 1450 c0 -5 5 -10 11 -10 5 0 7 5 4 10 -3 6 -8 10 -11 10 -2 0
-4 -4 -4 -10z"/>
<path d="M2226 1414 c-3 -7 -14 -14 -25 -14 -11 0 -24 -6 -28 -14 -13 -23 -73
-54 -96 -50 l-22 5 21 -10 c21 -9 54 -16 129 -27 39 -5 41 -4 76 48 20 29 36
57 35 63 -2 16 -84 16 -90 -1z"/>
<path d="M2312 1361 c-23 -33 -42 -61 -42 -64 0 -10 208 -13 305 -4 80 8 100
11 205 33 104 22 118 33 45 34 -33 1 -71 3 -85 5 -14 1 -63 6 -109 9 -46 4
-87 9 -90 11 -4 2 -27 6 -51 9 -53 7 -98 15 -121 22 -11 3 -29 -15 -57 -55z"/>
<path d="M2137 634 c-1 -1 -42 -4 -92 -8 -49 -4 -117 -11 -150 -16 -33 -5 -82
-12 -110 -16 -27 -3 -53 -8 -56 -10 -4 -2 -24 -6 -45 -9 -69 -10 -227 -64
-281 -95 -71 -41 -80 -60 -45 -95 34 -34 76 -56 175 -88 85 -29 296 -72 397
-82 36 -3 88 -8 115 -11 111 -13 473 -18 625 -9 122 7 226 16 240 20 8 2 40 7
70 10 65 7 222 39 300 62 82 23 197 82 215 109 15 23 14 26 -12 50 -41 38
-148 86 -243 109 -99 24 -201 43 -270 51 -30 3 -64 8 -75 10 -20 4 -131 13
-223 19 -46 3 -53 1 -49 -13 2 -10 6 -23 8 -31 8 -30 -48 -43 -190 -44 -198
-2 -293 15 -261 47 19 19 11 42 -15 42 -14 0 -27 -1 -28 -2z"/>
<path d="M1346 339 c83 -93 345 -163 729 -194 324 -26 604 -20 875 20 19 2 55
7 80 10 146 19 340 75 407 118 43 28 82 67 65 67 -6 0 -13 -4 -16 -9 -10 -15
-132 -70 -193 -87 -112 -30 -205 -49 -308 -64 -44 -6 -93 -13 -110 -15 -230
-32 -856 -20 -1050 20 -11 3 -36 7 -55 10 -32 4 -48 7 -105 19 -107 22 -249
73 -297 107 -35 25 -46 24 -22 -2z"/>
</g>
</svg>
