<?xml version="1.0" encoding="UTF-8"?><!DOCTYPE svg PUBLIC "-//W3C//DTD SVG 1.0//EN" "http://www.w3.org/TR/2001/REC-SVG-20010904/DTD/svg10.dtd"><svg viewBox="0 0 1000 1000" xmlns="http://www.w3.org/2000/svg" xmlns:xlink="http://www.w3.org/1999/xlink"><style>:root>svg{display:none}:root>svg:target{display:block}</style><svg viewBox="0 0 24 24" id="check" xmlns="http://www.w3.org/2000/svg"><path d="M22 13c0 5.523-4.477 10-10 10S2 18.523 2 13 6.477 3 12 3s10 4.477 10 10z" fill="#27ae60"/><path d="M22 12c0 5.523-4.477 10-10 10S2 17.523 2 12 6.477 2 12 2s10 4.477 10 10z" fill="#2ecc71"/><path d="M16 9l-6 6-2.5-2.5-2.125 2.1 2.5 2.5 2 2 .125.1 8.125-8.1L16 9z" fill="#27ae60"/><path d="M16 8l-6 6-2.5-2.5-2.125 2.1 2.5 2.5 2 2 .125.1 8.125-8.1L16 8z" fill="#ecf0f1"/></svg><svg viewBox="0 0 660 660" id="codewars" xmlns="http://www.w3.org/2000/svg"><path fill="#b1361e" d="M321.7 550.8a21 21 0 0112.2-3.6 21 21 0 0117.7 10.5 24.1 24.1 0 0117.8-7.2 24 24 0 0115.7 6.3 26.6 26.6 0 0126.3-19.7 26.5 26.5 0 019.7 2.1v.6c.4-15.7 13-28.2 28.4-28.7a35.5 35.5 0 01-3.3-19.7c1.5-12.3 9.1-22.4 19.4-27.7l.1.1c-5.3-5.5-8.5-13-8.3-21.3a29.6 29.6 0 016.2-17.5 27.3 27.3 0 01-12.1-33.5 24.5 24.5 0 01-22-25 24.7 24.7 0 01.3-3.8 19.8 19.8 0 01-4.2.4 19.8 19.8 0 01-18.7-15.3 17.7 17.7 0 01-10.3 3c-8.2-.3-15-6-16.8-13.7a11.2 11.2 0 01-5.8 1.4 11.2 11.2 0 01-4.8-1.2v-.2a36.4 36.4 0 01-9.7 16 11.2 11.2 0 015.2 5 11.3 11.3 0 01-.2 10.6 17.8 17.8 0 018.8 29.8 19.7 19.7 0 019.6 9c5 9.7 1.1 21.6-8.6 26.6a24.5 24.5 0 015.3 7c6.2 12.1 1.5 27-10.6 33a24.6 24.6 0 01-6 2.2v.1a27.3 27.3 0 01-11.8 36.8 27.1 27.1 0 01-14.7 2.9 29.7 29.7 0 01-17.7 29 17.2 17.2 0 013 5.6.7.7 0 01-.1 0z"/><path fill="#b1361e" d="M623.8 10H38.7A28.7 28.7 0 0010 38.7v577.5a28.7 28.7 0 0028.7 28.7h585.1a28.7 28.7 0 0028.7-28.7V38.7A28.7 28.7 0 00623.8 10zm-26.5 388.8c-3.8 6-9.8 10-16.2 11.6a24.2 24.2 0 01-21.5 39.7 21.8 21.8 0 00-.2-1.1 21 21 0 01-28.8 23.4 17.1 17.1 0 01-2.6 7.5c-2.7 4.3-7 7-11.5 7.7a35.6 35.6 0 01.6 12.2 35.7 35.7 0 01-39.6 31.3h1a29.4 29.4 0 011.5 10.2 29.5 29.5 0 01-30.2 28.7 29.4 29.4 0 01-12.6-3.2 26.6 26.6 0 01-45.4 15.6 24.2 24.2 0 01-45.1 2 21 21 0 01-34.1-13.2 17.1 17.1 0 01-7.8 1.7c-8.7-.2-15.8-7-16.6-15.5l.1-.2a35.5 35.5 0 01-16.9 14 35.7 35.7 0 01-46-18.9 29.4 29.4 0 01-8.2 6.2 29.5 29.5 0 01-39.6-12.8 29.3 29.3 0 01-3.3-12.6 26.6 26.6 0 01-35.3-32.4 24.2 24.2 0 01-23.4-38.6 21 21 0 01-4.7-36.3 17.1 17.1 0 01-5.2-6 17.2 17.2 0 01.3-16.3l.5.1a35.5 35.5 0 01-13.3-6.4 35.7 35.7 0 01-7-49.4 29.4 29.4 0 01-9.4-3.9 29.5 29.5 0 01-9-40.7 29.3 29.3 0 019.3-9.1 26.6 26.6 0 0110-47 24.2 24.2 0 0121.6-39.6l.1 1.1a21 21 0 0128.8-23.5 17.1 17.1 0 012.6-7.5c2.7-4.2 7-6.9 11.6-7.7a35.6 35.6 0 01-.7-12.1 35.7 35.7 0 0138.7-31.4 29.4 29.4 0 01-1.6-10.1c.5-16.3 14-29.2 30.2-28.7a29.3 29.3 0 0112.6 3.1 26.6 26.6 0 0145.4-15.5 24.2 24.2 0 0145.1-2.1 21 21 0 0134.1 13.2 17.1 17.1 0 017.8-1.6c8.8.2 15.8 7 16.7 15.4l-.2.3a35.4 35.4 0 0116.9-14.1c18-7.3 38.4 1.2 46 19A29.4 29.4 0 01451 99a29.5 29.5 0 0139.7 12.8 29.3 29.3 0 013.2 12.6 26.6 26.6 0 0135.4 32.5 24.2 24.2 0 0123.4 38.5 21 21 0 014.7 36.3 17.1 17.1 0 015.1 6 17.2 17.2 0 01-.3 16.4 35.5 35.5 0 0112.9 6.3 35.7 35.7 0 016.9 49.3 29.4 29.4 0 019.4 4 29.5 29.5 0 019 40.6 29.3 29.3 0 01-9.2 9.2 26.6 26.6 0 016.1 35.3z"/><path fill="#b1361e" d="M316.6 99.8a24.1 24.1 0 01-17.8 7.2 24 24 0 01-15.6-6.2 26.6 26.6 0 01-26.4 19.6 26.5 26.5 0 01-9.7-2 29.4 29.4 0 01-28.4 28 35.5 35.5 0 013.3 19.7 35.7 35.7 0 01-19.4 27.7c5.3 5.5 8.4 13 8.2 21.3a29.6 29.6 0 01-6.2 17.4c8.6 4.8 14.2 14 14 24.5a27.2 27.2 0 01-1.9 9 24.5 24.5 0 0122 25.1 24.7 24.7 0 01-.3 3.7 19.8 19.8 0 014.2-.3c9.2.2 16.8 6.7 18.8 15.3a17.7 17.7 0 0110.2-3c8.3.2 15 6 16.9 13.7a11.2 11.2 0 0110.2-.4 36.2 36.2 0 018.1-16.9 11.2 11.2 0 01-3.2-3.8 11.3 11.3 0 01.1-10.5A17.8 17.8 0 01295 259a19.7 19.7 0 01-9.6-9 19.8 19.8 0 0110.3-27.4 20 20 0 00-1.6.7 24.5 24.5 0 01-5.4-7 24.5 24.5 0 0116.7-35.2v-.1a27.3 27.3 0 0111.7-36.7 27.1 27.1 0 0114.8-3 29.7 29.7 0 0116-28.2 30 30 0 011.6-.7 17.2 17.2 0 01-2.9-5.6 21 21 0 01-12.2 3.5 21 21 0 01-17.7-10.6zm214.7 217a35.7 35.7 0 01-13.7-31c-7.4 1.7-15.5.6-22.4-3.9a29.6 29.6 0 01-11.8-14.3 27.3 27.3 0 01-28.1-.7 27.2 27.2 0 01-6.9-6.3c-7.6 10.2-21.9 13-32.8 6a24.8 24.8 0 01-3-2.2 19.8 19.8 0 01-1.8 3.8 19.8 19.8 0 01-22.8 8.1 17.7 17.7 0 01-2.8 10.3c-4.4 7-12.9 9.8-20.4 7.4a11.2 11.2 0 01-1.7 5.7c-.6.9-1.3 1.7-2 2.3a36.3 36.3 0 018.4 15.1 11.2 11.2 0 015-1.1 11.3 11.3 0 019.2 5.2 17.8 17.8 0 0130.4 6.5 19.7 19.7 0 0112.5-4.1c11 .2 19.5 9.3 19.3 20.2a19.8 19.8 0 01-.2 2l.2-1.9a24.5 24.5 0 018.7-1.4 24.5 24.5 0 0124 25.2 24.6 24.6 0 01-1 6.3c15.1.4 27 12.9 26.6 28a27.1 27.1 0 01-4.5 14.3A29.7 29.7 0 01517 444a29.7 29.7 0 01-2 9.7l.1-.2 2.7.5a21 21 0 013.3-12.3 21 21 0 0118.2-9.7 24.1 24.1 0 013-19 24 24 0 0113.5-10 26.6 26.6 0 01-3.3-32.8 26.5 26.5 0 016.9-7.2 29.4 29.4 0 01-9.4-38.9 35.5 35.5 0 01-18.6-7.3z"/><path fill="#b1361e" d="M532.7 236.4a17.2 17.2 0 012.2-2.9 21 21 0 01-8.9-9 21 21 0 01.8-20.6c-6.2-1.8-11.6-6-14.8-12.2a24 24 0 01-2-16.7 26.6 26.6 0 01-29.9-13.7 26.6 26.6 0 01-2.8-9.6 29.4 29.4 0 01-38.2-11.5 35.5 35.5 0 01-15.7 12.3 35.7 35.7 0 01-33.6-3.8v-.3a29.7 29.7 0 01-14.8 17.7 29.6 29.6 0 01-18.3 3 27.3 27.3 0 01-14.8 23.8 27.2 27.2 0 01-8.8 2.8c4.9 11.7 0 25.4-11.5 31.3a24.7 24.7 0 01-3.4 1.5 19.8 19.8 0 012.3 3.5c4.2 8.2 2.1 18-4.5 23.8a17.7 17.7 0 017.5 7.6c3.8 7.3 2 16-4 21.3a11.2 11.2 0 014.1 4.4c.5.9.8 1.8 1 2.7a36.3 36.3 0 0118-.4 11.3 11.3 0 011.5-3.8 11.3 11.3 0 019.1-5.2 17.8 17.8 0 0121.3-22.7 19.7 19.7 0 013-12.8c5.8-9.2 18-11.9 27.2-6a24.5 24.5 0 013.4-8.2 24.5 24.5 0 0134-7.5 24.5 24.5 0 014.8 4.1 27.3 27.3 0 0137.7-8.4 27.1 27.1 0 0110 11.3c9.5-6.4 22.3-7 32.5-.4a29.7 29.7 0 015.6 4.6zm-188 132a11.2 11.2 0 01-1.3-6.4 36.4 36.4 0 01-9 1.1c-3 0-5.9-.3-8.6-1a11.2 11.2 0 01-1.6 7.9 11.3 11.3 0 01-9.2 5.2 17.8 17.8 0 01-21.2 22.6 19.7 19.7 0 01-3 12.8 19.8 19.8 0 01-27.3 6 24.5 24.5 0 01-3.4 8.2 24.5 24.5 0 01-33.9 7.5 24.6 24.6 0 01-4.9-4.1v.1a27.3 27.3 0 01-37.7 8.3 27.1 27.1 0 01-10-11.2c-9.5 6.4-22.2 7-32.5.4a29.8 29.8 0 01-5.6-4.6 17.4 17.4 0 01-2.2 2.8 21 21 0 019 9 21 21 0 01-.9 20.6c6.2 1.8 11.7 6 14.8 12.2a24 24 0 012 16.7 26.6 26.6 0 0130 13.8 26.5 26.5 0 012.7 9.5 29.4 29.4 0 0138.3 11.5 35.5 35.5 0 0115.7-12.3c11.5-4.6 24-2.8 33.6 3.8a29.6 29.6 0 0114.7-17.4 29.6 29.6 0 0118.3-2.9c.1-9.7 5.5-19.1 14.8-23.9a27.3 27.3 0 018.9-2.8c-5-11.7 0-25.4 11.4-31.3a24.6 24.6 0 013.5-1.4 19.7 19.7 0 01-2.4-3.6c-4.2-8.2-2-17.9 4.5-23.7a17.7 17.7 0 01-7.5-7.6c-3.7-7.4-1.9-16.1 4-21.4a11.2 11.2 0 01-4-4.4z"/><path fill="#b1361e" d="M300.4 339.5a11.2 11.2 0 01-6.7 2 11.3 11.3 0 01-9.2-5.1 17.8 17.8 0 01-30.3-6.5 19.7 19.7 0 01-12.6 4c-10.9-.2-19.5-9.3-19.2-20.2a24.5 24.5 0 01-8.8 1.3 24.5 24.5 0 01-22.9-31.5h-.1c-15-.3-27-12.8-26.6-27.9a27.1 27.1 0 014.5-14.3 29.7 29.7 0 01-17.1-27.7 29.7 29.7 0 011.8-9.6 17.4 17.4 0 01-2.7-.5 21 21 0 01-3.3 12.3 21 21 0 01-18.2 9.7c1.6 6.3.7 13.1-3 19a24 24 0 01-13.4 10.1c8.3 8.7 10 22.2 3.2 32.8a26.5 26.5 0 01-6.8 7.2 29.4 29.4 0 019.4 38.8 35.5 35.5 0 0118.5 7.4 35.7 35.7 0 0113.7 30.9c7.5-1.7 15.5-.5 22.5 4a29.6 29.6 0 0111.7 14.2 27.3 27.3 0 0128.1.8 27.2 27.2 0 016.9 6.2c7.6-10.2 22-13 32.8-6a24.6 24.6 0 013 2.3 19.8 19.8 0 011.9-3.8c5-7.8 14.4-10.9 22.8-8.2A17.7 17.7 0 01283 371c4.5-7 13-9.7 20.4-7.3a11.2 11.2 0 016.6-10 36.4 36.4 0 01-9.6-14z"/></svg><svg data-name="Layer 1" viewBox="0 0 32 32" id="email" xmlns="http://www.w3.org/2000/svg"><path d="M16.58 19.107L3.89 11.03A3 3 0 017.11 5.97l9.31 5.924 8.36-5.851a3 3 0 013.44 4.915z" fill="#ea4435"/><path d="M27.5 26.5h-4v-18a3 3 0 013-3 3 3 0 013 3v16a2 2 0 01-2 2z" fill="#00ac47"/><path d="M29.456 8.066c-.009-.06-.008-.122-.02-.182-.02-.091-.055-.176-.083-.265a2.931 2.931 0 00-.096-.3c-.02-.047-.05-.088-.073-.134a2.984 2.984 0 00-.215-.385c-.04-.058-.09-.108-.135-.163a3.028 3.028 0 00-.245-.285c-.067-.064-.142-.118-.215-.177a3.02 3.02 0 00-.24-.185c-.079-.052-.166-.092-.25-.136-.088-.046-.175-.097-.267-.133-.089-.036-.183-.059-.276-.086s-.186-.06-.281-.078a3.054 3.054 0 00-.357-.036c-.076-.005-.151-.019-.227-.018a2.978 2.978 0 00-.422.043c-.056.008-.113.007-.17.019a33.211 33.211 0 00-.564.178c-.051.022-.096.055-.146.08A2.901 2.901 0 0023.5 8.5v5.762l4.72-3.304a2.888 2.888 0 001.236-2.893z" fill="#ffba00"/><path d="M5.5 5.5a3 3 0 013 3v18h-4a2 2 0 01-2-2v-16a3 3 0 013-3z" fill="#4285f4"/><path d="M2.544 8.066c.009-.06.008-.122.02-.182.02-.091.055-.176.083-.265a2.931 2.931 0 01.096-.299c.02-.048.05-.09.073-.135a2.972 2.972 0 01.216-.385c.04-.058.09-.108.134-.163a3.027 3.027 0 01.245-.285c.067-.064.142-.118.215-.177a3 3 0 01.24-.185c.08-.052.166-.092.25-.136a2.975 2.975 0 01.267-.134c.089-.036.184-.059.277-.086s.185-.06.28-.078a3.057 3.057 0 01.357-.036c.076-.005.151-.018.228-.018a2.976 2.976 0 01.421.043c.057.008.113.008.17.02a2.906 2.906 0 01.285.088 2.916 2.916 0 01.279.09c.051.021.096.054.146.079a2.974 2.974 0 01.375.21A2.994 2.994 0 018.5 8.5v5.762l-4.72-3.304a2.89 2.89 0 01-1.236-2.892z" fill="#c52528"/></svg><svg viewBox="0 0 24 24" id="error" xmlns="http://www.w3.org/2000/svg"><path d="M22 13c0 5.523-4.477 10-10 10S2 18.523 2 13 6.477 3 12 3s10 4.477 10 10z" fill="#c0392b"/><path d="M22 12c0 5.523-4.477 10-10 10S2 17.523 2 12 6.477 2 12 2s10 4.477 10 10z" fill="#e74c3c"/><path d="M7.05 9.4l3.536 3.6-3.536 3.5 1.415 1.4L12 14.4l3.536 3.5 1.414-1.4-3.536-3.5 3.536-3.6L15.536 8 12 11.5 8.465 8 7.05 9.4z" fill="#c0392b"/><path d="M7.05 8.4l3.536 3.6-3.536 3.5 1.415 1.4L12 13.4l3.536 3.5 1.414-1.4-3.536-3.5 3.536-3.6L15.536 7 12 10.5 8.465 7 7.05 8.4z" fill="#ecf0f1"/></svg><svg version="1.0" viewBox="0 0 32 32" id="github" xmlns="http://www.w3.org/2000/svg"><path clip-rule="evenodd" d="M16.003 0C7.17 0 .008 7.162.008 15.997c0 7.067 4.582 13.063 10.94 15.179.8.146 1.052-.328 1.052-.752 0-.38.008-1.442 0-2.777-4.449.967-5.371-2.107-5.371-2.107-.727-1.848-1.775-2.34-1.775-2.34-1.452-.992.109-.973.109-.973 1.605.113 2.451 1.649 2.451 1.649 1.427 2.443 3.743 1.737 4.654 1.329.146-1.034.56-1.739 1.017-2.139-3.552-.404-7.286-1.776-7.286-7.906 0-1.747.623-3.174 1.646-4.292-.165-.404-.715-2.031.157-4.234 0 0 1.343-.43 4.398 1.641a15.31 15.31 0 014.005-.538c1.359.006 2.727.183 4.005.538 3.055-2.07 4.396-1.641 4.396-1.641.872 2.203.323 3.83.159 4.234 1.023 1.118 1.644 2.545 1.644 4.292 0 6.146-3.74 7.498-7.304 7.893C19.479 23.548 20 24.508 20 26v4.428c0 .428.258.901 1.07.746C27.422 29.055 32 23.062 32 15.997 32 7.162 24.838 0 16.003 0z" fill="#f0f6fc" fill-rule="evenodd"/></svg><svg viewBox="0 0 300 300" id="info" xmlns="http://www.w3.org/2000/svg"><path d="M151.123 14.8c-74.557 0-134.998 60.44-134.998 135.002 0 74.554 60.44 134.998 134.998 134.998 74.559 0 135.002-60.443 135.002-134.998 0-74.561-60.443-135.002-135.002-135.002zm0 250.914c-64.013 0-115.911-51.901-115.911-115.912 0-64.018 51.898-115.911 115.911-115.911 64.019 0 115.912 51.894 115.912 115.911 0 64.011-51.893 115.912-115.912 115.912z" fill="#D77E47"/><circle cx="151.125" cy="149.802" fill="#D77E47" r="104.431"/><g fill="#FFF"><path d="M139.156 93.922c3.02-2.791 6.638-4.183 10.829-4.183 4.195 0 7.785 1.392 10.793 4.183 2.996 2.804 4.496 6.161 4.496 10.091 0 3.931-1.517 7.279-4.54 10.051-3.021 2.768-6.602 4.151-10.749 4.151-4.183 0-7.801-1.379-10.829-4.151-3.024-2.771-4.536-6.12-4.536-10.051 0-3.93 1.512-7.287 4.536-10.091zM176.604 209.861h-49.046v-5.663c1.347-.1 2.663-.236 3.962-.389 1.287-.16 2.402-.413 3.329-.778 1.665-.613 2.824-1.516 3.505-2.679.666-1.163 1.011-2.699 1.011-4.616v-45.172c0-1.809-.417-3.393-1.239-4.765-.83-1.38-1.869-2.483-3.108-3.305-.926-.618-2.346-1.215-4.227-1.789-1.885-.565-3.609-.922-5.158-1.083v-5.659l38.029-2.018 1.163 1.159v61.62c0 1.813.393 3.345 1.158 4.616.782 1.268 1.89 2.206 3.341 2.835a25.31 25.31 0 003.413 1.239 23.73 23.73 0 003.883.778v5.667h-.016v.002z"/></g></svg><svg viewBox="0 0 24 24" id="not-exist" xmlns="http://www.w3.org/2000/svg"><path d="M12 3c-2.248 0-4.33.7-6 2-2.433 1.8-4 4.7-4 8 0 5.5 4.477 10 10 10s10-4.5 10-10c0-5.6-4.477-10-10-10zm0 3c3.866 0 7 3.1 7 7 0 1.4-.426 2.7-1.156 3.8L8.156 7.1C9.262 6.4 10.576 6 12 6zM6.062 9.3l9.626 9.6A6.705 6.705 0 0112 20c-3.866 0-7-3.2-7-7 0-1.4.394-2.7 1.063-3.7z" fill="#c0392b"/><path d="M12 2a9.98 9.98 0 00-6 2 9.968 9.968 0 00-4 8c0 5.523 4.477 10 10 10s10-4.477 10-10S17.523 2 12 2zm0 3a7 7 0 017 7 6.94 6.94 0 01-1.156 3.844L8.156 6.156A6.933 6.933 0 0112 5zM6.062 8.313l9.626 9.625A6.947 6.947 0 0112 19a7 7 0 01-7-7c0-1.357.394-2.614 1.063-3.687z" fill="#e74c3c"/></svg><svg viewBox="0 0 24 24" id="question" xmlns="http://www.w3.org/2000/svg"><path d="M22 13c0 5.523-4.477 10-10 10S2 18.523 2 13 6.477 3 12 3s10 4.477 10 10z" fill="#2980b9"/><path d="M22 12c0 5.523-4.477 10-10 10S2 17.523 2 12 6.477 2 12 2s10 4.477 10 10z" fill="#3498db"/><path d="M12 7c-1.727-.1-3.43 1.1-3.844 2.8-.04.3-.054.4-.156 1.2h2c-.053-1.3 1.306-2.3 2.5-2 1.021.3 1.763 1.5 1.406 2.5-.294.6-.998 1-1.562 1.4-.577.5-1.074 1.1-1.313 1.8-.039.4-.034.8-.031 1.3h2v-1c.172-.7.688-1.1 1.25-1.4.634-.3 1.087-.8 1.406-1.4.543-1 .454-2.2-.125-3.1C14.826 7.8 13.464 6.9 12 7zm0 10c-.552 0-1 .4-1 1 0 .5.448 1 1 1s1-.5 1-1c0-.6-.448-1-1-1z" fill="#2980b9"/><path d="M12 6c-1.727-.027-3.43 1.175-3.844 2.875-.04.294-.054.328-.156 1.125h2c-.053-1.248 1.306-2.289 2.5-1.938 1.021.238 1.763 1.429 1.406 2.438-.294.684-.998.992-1.562 1.406-.577.482-1.074 1.094-1.313 1.813-.039.42-.034.859-.031 1.281h2v-1c.172-.624.688-1.042 1.25-1.312.634-.312 1.087-.835 1.406-1.469.543-.974.454-2.175-.125-3.094C14.826 6.855 13.464 5.981 12 6zm0 10a1 1 0 100 2 1 1 0 000-2z" fill="#ecf0f1"/></svg><svg viewBox="0 0 128 128" id="telegram" xmlns="http://www.w3.org/2000/svg"><defs><linearGradient id="ia" x1="50%" x2="50%" y1="0%" y2="99.258%"><stop offset="0%" stop-color="#2AABEE"/><stop offset="100%" stop-color="#229ED9"/></linearGradient></defs><g fill="none" fill-rule="nonzero"><circle cx="64" cy="64" r="64" fill="url(#ia)"/><path fill="#FFF" d="M28.97 63.324c18.657-8.128 31.098-13.487 37.323-16.076 17.774-7.393 21.467-8.677 23.874-8.72.53-.009 1.713.122 2.48.745.648.525.826 1.235.911 1.733.085.498.191 1.633.107 2.52-.963 10.12-5.13 34.677-7.25 46.012-.898 4.796-2.664 6.404-4.375 6.561-3.716.342-6.538-2.456-10.138-4.815-5.633-3.693-8.815-5.991-14.283-9.594-6.319-4.164-2.222-6.453 1.379-10.193.942-.98 17.318-15.874 17.634-17.225.04-.169.077-.799-.297-1.131-.375-.333-.927-.22-1.325-.129-.565.128-9.564 6.076-26.996 17.843-2.554 1.754-4.868 2.609-6.94 2.564-2.286-.05-6.681-1.292-9.95-2.354-4.007-1.303-7.193-1.992-6.915-4.205.144-1.152 1.731-2.33 4.761-3.536z"/></g></svg><svg viewBox="0 0 24 24" id="warning" xmlns="http://www.w3.org/2000/svg"><path d="M12 3c-.985-.1-1.715.7-2.031 1.6C7.363 9.8 4.759 15 2.156 20.2c-.618 1.3.58 2.9 2 2.8h15.688c1.42.1 2.618-1.5 2-2.8C19.24 15 16.637 9.8 14.031 4.6 13.715 3.7 12.985 2.9 12 3z" fill="#f39c12"/><path d="M12 2c-.985-.037-1.715.768-2.031 1.625L2.156 19.25c-.618 1.307.58 2.919 2 2.75 2.61-.003 5.234-.001 7.844 0 2.61-.001 5.234-.003 7.844 0 1.42.169 2.618-1.443 2-2.75L14.031 3.625C13.715 2.768 12.985 1.963 12 2z" fill="#f1c40f"/><path d="M12 8a1 1 0 00-1 1l.5 7h1l.5-7a1 1 0 00-1-1zm0 9a1 1 0 100 2 1 1 0 000-2z" fill="#34495e"/></svg><svg id="whatsapp" version="1.1" viewBox="0 0 1000 1000" xml:space="preserve" xmlns="http://www.w3.org/2000/svg"><style>.kst0{fill:#25d366}.kst1{fill-rule:evenodd;clip-rule:evenodd;fill:#fff}</style><path class="kst0" d="M500 1000C223.9 1000 0 776.1 0 500S223.9 0 500 0s500 223.9 500 500-223.9 500-500 500z"/><path class="kst1" d="M733.9 267.2c-62-62.1-144.6-96.3-232.5-96.4-181.1 0-328.6 147.4-328.6 328.6 0 57.9 15.1 114.5 43.9 164.3L170.1 834l174.2-45.7c48 26.2 102 40 157 40h.1c181.1 0 328.5-147.4 328.6-328.6.1-87.8-34-170.4-96.1-232.5zM501.5 772.8h-.1c-49 0-97.1-13.2-139-38.1l-10-5.9L249 755.9l27.6-100.8-6.5-10.3c-27.3-43.5-41.8-93.7-41.8-145.4.1-150.6 122.6-273.1 273.3-273.1 73 0 141.5 28.5 193.1 80.1 51.6 51.6 80 120.3 79.9 193.2 0 150.7-122.6 273.2-273.1 273.2zm149.8-204.6c-8.2-4.1-48.6-24-56.1-26.7-7.5-2.7-13-4.1-18.5 4.1s-21.2 26.7-26 32.2c-4.8 5.5-9.6 6.2-17.8 2.1-8.2-4.1-34.7-12.8-66-40.8-24.4-21.8-40.9-48.7-45.7-56.9-4.8-8.2-.5-12.7 3.6-16.8 3.7-3.7 8.2-9.6 12.3-14.4 4.1-4.8 5.5-8.2 8.2-13.7 2.7-5.5 1.4-10.3-.7-14.4-2.1-4.1-18.5-44.5-25.3-61-6.7-16-13.4-13.8-18.5-14.1-4.8-.2-10.3-.3-15.7-.3-5.5 0-14.4 2.1-21.9 10.3-7.5 8.2-28.7 28.1-28.7 68.5s29.4 79.5 33.5 84.9c4.1 5.5 57.9 88.4 140.3 124 19.6 8.5 34.9 13.5 46.8 17.3 19.7 6.3 37.6 5.4 51.7 3.3 15.8-2.4 48.6-19.9 55.4-39 6.8-19.2 6.8-35.6 4.8-39-2-3.4-7.5-5.4-15.7-9.6z" id="kWA_Logo"/></svg></svg>