<svg width="772" height="711" fill="none" xmlns="http://www.w3.org/2000/svg"><path opacity=".8" d="M355.553 43.782c41.184-35.708 178.751 4.335 215.339 39.608 45.417 43.815 58.075 91.26 36.403 154.78-18.132 52.98-146.736 113.64-184.581 154.224-79.178 84.938-169.869 70.171-264.759-4.864-39.164-36.662-70.1-137.347 119.465-246.792 46.521-24.395 42.205-65.811 78.133-96.956z" fill="#A89060"/><path d="M386 599.152c165.335 0 299.366-7.825 299.366-17.478 0-9.653-134.031-17.478-299.366-17.478-165.335 0-299.366 7.825-299.366 17.478 0 9.653 134.031 17.478 299.366 17.478z" fill="#F5F5F5"/><path d="M299.644 118.428c1.544-6.5 17.694-12.676 31.59-3.088a33.96 33.96 0 0113.151 17.301 33.962 33.962 0 01-.027 21.731c-7.457 22.079 31.467 21.261 40.484 58.487 7.118 29.336.525 70.885-39.202 68.631-60.633-3.443-55.399-62.702-58.055-93.845-2.655-31.142-35.743-66.067 12.059-69.217z" fill="#263238"/><path d="M279.618 201.573c-.262 4.508-.787 8.63-1.374 12.907-.587 4.277-1.405 8.461-2.316 12.661-.911 4.2-1.945 8.4-3.258 12.537a115.679 115.679 0 01-4.508 12.352l-1.359 3.088c-.201.448-.571 1.128-.849 1.699-.278.571-.649 1.096-.973 1.652a48.043 48.043 0 01-4.23 5.636 97.468 97.468 0 01-9.264 9.263 172.477 172.477 0 01-20.319 15.441l-4.107-5.497c2.902-2.81 5.867-5.713 8.723-8.616 2.857-2.902 5.682-5.851 8.369-8.847a117.18 117.18 0 007.488-9.094 40.656 40.656 0 002.903-4.632c.17-.355.386-.726.525-1.065.139-.34.293-.618.463-1.127l1.05-2.718a152.724 152.724 0 006.176-22.897c.787-3.922 1.359-7.906 1.945-11.874.587-3.968 1.035-8.059 1.374-11.827l13.541.958z" fill="#FFB573"/><path d="M270.354 185.361c-5.481 1.389-9.264 23.962-9.264 23.962l20.983 14.267s8.631-26.758 4.401-32.795c-4.447-6.299-8.122-7.473-16.12-5.434z" fill="#4A607A"/><path opacity=".2" d="M270.848 190.394l-4.215 22.758 8.492 5.759-4.277-28.517z" fill="#000"/><path d="M229.562 281.428l-14.128 2.254 8.06 8.925s8.322-1.899 9.789-7.226l-3.721-3.953z" fill="#FFB573"/><path d="M208.749 285.458l8.059 8.723 6.686-1.575-8.06-8.924-6.685 1.776zm91.281 279.788h-13.309l-.896-30.818h13.309l.896 30.818zm40.08.655l-13.31-.008-4.253-30.82 13.309.009 4.254 30.819z" fill="#FFB573"/><path d="M325.359 563.301l14.777-2.193a1.062 1.062 0 011.199.74l3.436 11.416a2.152 2.152 0 01-.934 2.308 2.128 2.128 0 01-.822.31c-5.163.673-7.693.739-14.198 1.714-3.998.599-14.25 4.044-19.776 4.869-5.526.825-6.627-4.597-4.441-5.454a45.669 45.669 0 0018.657-12.651 3.564 3.564 0 012.102-1.059z" fill="#263238"/><path d="M286.258 563.718h14.961a1.032 1.032 0 011.05.895l1.714 11.843a2.154 2.154 0 01-.542 1.653 2.148 2.148 0 01-1.589.709c-5.219-.093-7.72-.401-14.313-.401-4.045 0-12.352.416-17.988.416-5.635 0-5.882-5.512-3.566-6.021 10.437-2.239 14.544-5.327 18.049-8.276a3.444 3.444 0 012.224-.818z" fill="#263238"/><path opacity=".2" d="M285.841 534.443l.447 15.888h13.31l-.448-15.888h-13.309zm48.287-.073l-13.248 1.426 3.907 15.568 13.232-1.43-3.891-15.564z" fill="#000"/><path d="M270.354 185.36s-6.346 2.224 6.362 80.288h54.04c-.911-22.002-.927-35.512 9.588-80.704a158.794 158.794 0 00-22.959-3.088 170.846 170.846 0 00-24.535 0c-10.545 1.096-22.496 3.504-22.496 3.504z" fill="#4A607A"/><path opacity=".2" d="M335.882 202.838c-4.895 1.22-9.419 6.562-8.878 16.398a23.632 23.632 0 004.508 12.352c.865-7.566 2.316-16.351 4.632-27.592l-.262-1.158z" fill="#000"/><path d="M295.691 203.533s7.026 4.339 8.863 10.808c7.627-5.589 17.988-21.137 18.404-30.447a2.06 2.06 0 00-.151-.791 2.06 2.06 0 00-1.902-1.278 25.387 25.387 0 00-3.52.154l-21.694 21.554zm0 0s-7.025 4.339-8.862 10.808c-8.199-6.006-3.644-25.831 1.05-32.424a23.735 23.735 0 014.971 0l2.841 21.616z" fill="#FAFAFA"/><path d="M314.976 154.311c-1.544 7.889-3.088 22.357 2.424 27.637a56.92 56.92 0 01-21.693 21.616c-10.947-8.739-2.841-21.616-2.841-21.616 8.801-2.1 8.569-8.646 7.041-14.776l15.069-12.861z" fill="#FFB573"/><path opacity=".2" d="M308.8 159.56l-8.924 7.612c.385 1.425.638 2.883.756 4.354 3.366-.494 8.662-3.35 9.388-7.01.324-1.729-.911-4.138-1.22-4.956z" fill="#000"/><path d="M328.193 141.619c-3.644 12.691-4.926 18.142-12.893 23.314-11.981 7.72-26.773.494-26.989-13.031-.201-12.182 5.805-30.88 19.547-33.212a17.999 17.999 0 0116.566 5.79 18.006 18.006 0 013.769 17.139z" fill="#FFB573"/><path d="M300.787 119.817c.602 4.293 24.101 18.096 28.564 10.901 4.462-7.195-1.961-12.614-11.966-13.989a25.343 25.343 0 00-16.598 3.088z" fill="#263238"/><path d="M316.103 122.149c-2.887 3.798 3.227 31.158 11.981 28.579 8.755-2.578 8.353-11.333 2.27-19.408a23.467 23.467 0 00-14.251-9.171z" fill="#263238"/><path d="M276.715 265.679s-10.499 102.553-9.603 143.083c.911 42.213 16.382 138.496 16.382 138.496h17.987s-2.841-93.813-1.25-135.269c1.729-45.193 16.088-146.31 16.088-146.31h-39.604z" fill="#DDD0A4"/><path d="M331.42 264.784s10.499 102.552 9.603 143.082c-.911 42.213-.942 138.497-.942 138.497h-17.987s-10.206-93.211-14.19-135.27c-4.352-45.949-16.088-146.309-16.088-146.309h39.604z" fill="#DDD0A4"/><path d="M303.01 547.891h-21.106l-1.544-6.731 23.638-.819-.988 7.55z" fill="#263238"/><path opacity=".2" d="M299.804 294.291c-13.278 26.696-2.671 75.409 2.023 93.536 2.409-27.221 6.469-60.494 9.634-84.921-2.022-13.834-5.542-20.936-11.657-8.615z" fill="#000"/><path d="M341.782 548.852l-22.513-.021-2.395-7.07 26.488-1.171-1.58 8.262zM141.446 130.085a90.786 90.786 0 10128.152 7.813 90.806 90.806 0 00-128.152-7.813zm110.813 125.219a76.419 76.419 0 01-116.641-18.732 76.41 76.41 0 0185.458-112.392 76.41 76.41 0 0149.229 107.39 76.436 76.436 0 01-18.046 23.734z" fill="#263238"/><path opacity=".3" d="M197.354 267.98a70.035 70.035 0 1174.112-65.636 70.05 70.05 0 01-74.112 65.636z" fill="#4A607A"/><path opacity=".5" d="M205.877 128.17h-1.312l-72.754 64.385-.092 1.313a69.743 69.743 0 0011.518 42.923l103.803-91.976a69.754 69.754 0 00-41.163-16.645zm47.941 23.222l-104.884 92.81a69.468 69.468 0 0011.796 10.808l102.306-90.587a70.03 70.03 0 00-9.218-13.031z" fill="#FAFAFA"/><path d="M273.056 266.745l-11.95 10.576a4.388 4.388 0 01-6.176-.37 4.414 4.414 0 01.37-6.176l11.951-10.577a4.388 4.388 0 016.176.386 4.37 4.37 0 01-.371 6.161z" fill="#263238"/><path d="M268.656 264.784c9.001 7.92 17.617 16.196 26.124 24.58 8.508 8.384 16.815 16.984 25.029 25.538 8.214 8.554 16.273 17.385 24.271 26.248 7.504 9.264 17.725 16.119 19.254 30.664a7.354 7.354 0 01-2.442 6.265 7.364 7.364 0 01-6.513 1.671c-14.267-3.289-19.81-14.267-28.086-22.851a1526.981 1526.981 0 01-23.067-27.267 1058.081 1058.081 0 01-22.311-27.962c-7.287-9.45-14.452-19.007-21.23-28.904a6.033 6.033 0 01.892-8.03 6.032 6.032 0 018.079.048zm38.26-124.308c-.231 1.05-.972 1.776-1.667 1.544-.695-.231-1.05-1.127-.819-2.161.232-1.035.973-1.776 1.668-1.544.695.231 1.05 1.111.818 2.161zm-11.842-2.624c-.232 1.049-.988 1.775-1.668 1.621-.679-.155-1.05-1.127-.818-2.177.232-1.05.973-1.776 1.668-1.621.694.154 1.05 1.127.818 2.177z" fill="#263238"/><path d="M294.549 135.798l-2.362-1.281s.849 2.254 2.362 1.281z" fill="#263238"/><path d="M298.301 140.554a28.808 28.808 0 01-5.219 5.851 4.63 4.63 0 003.582 1.544l1.637-7.395z" fill="#ED893E"/><path d="M301.466 153.307a9.939 9.939 0 01-1.544-.232.312.312 0 01-.193-.137.303.303 0 01-.042-.113.303.303 0 01.141-.313.318.318 0 01.112-.043.329.329 0 01.121.004 8.54 8.54 0 007.488-1.745.331.331 0 01.238-.147.315.315 0 01.265.093c.034.034.06.075.076.121a.316.316 0 01-.131.381 8.9 8.9 0 01-6.531 2.131z" fill="#263238"/><path d="M329.042 154.28a9.642 9.642 0 01-6.176 4.06c-3.335.618-4.632-2.439-3.505-5.419 1.05-2.687 4.076-6.176 7.288-5.497a4.339 4.339 0 012.393 6.856z" fill="#FFB573"/><path d="M311.888 135.86a.637.637 0 01-.695-.232c-1.714-2.362-5.481-2.331-5.512-2.331a.634.634 0 01-.633-.633.621.621 0 01.378-.585.616.616 0 01.24-.048c.185 0 4.446 0 6.546 2.856a.632.632 0 01-.139.88l-.185.093zm-19.284-6.686a.645.645 0 01-.525-.339.631.631 0 01.278-.85 6.32 6.32 0 015.759-.108.65.65 0 01.231.865.636.636 0 01-.864.232 5.015 5.015 0 00-4.555.139.819.819 0 01-.324.061z" fill="#263238"/><path d="M318.716 566.038l-.185-.076a1.782 1.782 0 01-.756-1.577 1.046 1.046 0 01.481-.971c1.426-.918 5.82 1.064 6.309 1.297a.276.276 0 01.14.114.276.276 0 01.041.177.323.323 0 01-.2.285c-1.545.636-4.377 1.562-5.83.751zm4.941-1.065c-1.787-.731-4.255-1.507-5.001-1.029a.48.48 0 00-.182.443 1.224 1.224 0 00.482 1.065c.739.519 2.475.312 4.701-.479z" fill="#4A607A"/><path d="M323.899 565.073c-1.453-.811-3.784-2.983-3.664-4.336a1.095 1.095 0 01.92-1.024 1.642 1.642 0 011.38.214c1.618 1.062 2.201 4.855 2.234 5.018a.352.352 0 01-.117.286.326.326 0 01-.316.038 2.63 2.63 0 01-.437-.196zm-1.777-4.665a1.069 1.069 0 00-.797-.092c-.393.106-.455.297-.451.449-.047.932 1.752 2.853 3.157 3.661-.254-1.255-.868-3.341-1.83-3.968l-.079-.05zm-40.852 5.625a4.954 4.954 0 01-3.227-.818 1.733 1.733 0 01-.571-1.544.988.988 0 01.525-.834c1.637-.911 6.948 1.807 7.535 2.116a.325.325 0 01.17.324.289.289 0 01-.079.173.292.292 0 01-.168.089 21.902 21.902 0 01-4.185.494zm-2.377-2.748a1.246 1.246 0 00-.587.108.437.437 0 00-.216.34 1.186 1.186 0 00.37 1.019c.803.726 2.996.849 5.945.355a17.334 17.334 0 00-5.512-1.822z" fill="#4A607A"/><path d="M285.393 565.571h-.124c-1.544-.711-4.724-3.583-4.477-5.096 0-.355.309-.803 1.173-.895a2.257 2.257 0 011.745.556c1.683 1.389 1.992 4.971 1.992 5.126a.282.282 0 01-.124.278.296.296 0 01-.185.031zm-3.165-5.404h-.201c-.571 0-.602.293-.617.37-.155.896 1.976 3.165 3.597 4.138a7.29 7.29 0 00-1.698-4.107 1.546 1.546 0 00-1.081-.401z" fill="#4A607A"/><path d="M306.391 138.438l-2.362-1.297s.849 2.254 2.362 1.297z" fill="#263238"/><path d="M331.574 262.499l1.374 4.832c.185.386-.247.772-.88.772h-55.692c-.479 0-.88-.247-.911-.556l-.494-4.832c0-.34.386-.618.926-.618h54.735a.974.974 0 01.942.402z" fill="#4A607A"/><path opacity=".2" d="M331.574 262.499l1.374 4.832c.185.386-.247.772-.88.772h-55.692c-.479 0-.88-.247-.911-.556l-.494-4.832c0-.34.386-.618.926-.618h54.735a.974.974 0 01.942.402z" fill="#000"/><path d="M324.039 268.613h1.467c.293 0 .509-.139.494-.324l-.695-6.284c0-.186-.278-.34-.556-.34h-1.544c-.293 0-.525.154-.494.34l.68 6.284c.092.185.355.324.648.324z" fill="#4A607A"/><path opacity=".4" d="M324.039 268.613h1.467c.293 0 .509-.139.494-.324l-.695-6.284c0-.186-.278-.34-.556-.34h-1.544c-.293 0-.525.154-.494.34l.68 6.284c.092.185.355.324.648.324z" fill="#fff"/><path d="M280.56 268.613h1.467c.293 0 .51-.139.494-.324l-.679-6.284c0-.186-.278-.34-.572-.34h-1.466c-.294 0-.51.154-.494.34l.679 6.284c.031.185.278.324.571.324z" fill="#4A607A"/><path opacity=".4" d="M280.56 268.613h1.467c.293 0 .51-.139.494-.324l-.679-6.284c0-.186-.278-.34-.572-.34h-1.466c-.294 0-.51.154-.494.34l.679 6.284c.031.185.278.324.571.324z" fill="#fff"/><path d="M302.207 268.613h1.544c.294 0 .51-.139.494-.324l-.679-6.284c0-.186-.278-.34-.571-.34h-1.467c-.294 0-.51.154-.494.34l.679 6.284c-.046.185.201.324.494.324z" fill="#4A607A"/><path opacity=".4" d="M302.207 268.613h1.544c.294 0 .51-.139.494-.324l-.679-6.284c0-.186-.278-.34-.571-.34h-1.467c-.294 0-.51.154-.494.34l.679 6.284c-.046.185.201.324.494.324z" fill="#fff"/><path d="M298.285 276.457l-13.124-5.868 3.737 13.016s8.337 1.884 11.966-2.3l-2.579-4.848z" fill="#FFB573"/><path d="M346.643 201.001c.602 4.555 1.081 9.14 1.622 13.695l1.389 13.742c.494 4.632.865 9.156 1.297 13.741l.571 6.871.155 1.73v2.918a14.673 14.673 0 01-1.838 5.574 23.23 23.23 0 01-6.176 6.762 47.836 47.836 0 01-6.608 4.184 91.07 91.07 0 01-13.448 5.636c-4.524 1.544-9.063 2.826-13.618 3.968a150.629 150.629 0 01-13.819 2.81l-1.544-6.562c4.246-1.405 8.585-2.841 12.8-4.462 4.215-1.621 8.43-3.211 12.475-5.049a95.592 95.592 0 0011.549-6.021 36.281 36.281 0 004.849-3.505 11.846 11.846 0 002.918-3.49 2.01 2.01 0 00.247-.957v-.463l-.247-1.699-.988-6.84c-.603-4.632-1.282-9.125-1.838-13.695l-1.745-13.695c-.494-4.632-1.065-9.141-1.544-13.726l13.541-1.467z" fill="#FFB573"/><path d="M340.344 184.974c5.404 1.637 11.919 20.288 11.919 20.288l-18.944 19.501s-9.728-20.072-7.458-27.051c2.378-7.287 8.307-14.621 14.483-12.738z" fill="#4A607A"/><path d="M274.307 273.291l3.706 10.716 10.885-.402-3.737-13.016-10.854 2.702z" fill="#FFB573"/></svg>