<svg width="86" height="86" fill="none" xmlns="http://www.w3.org/2000/svg"><circle cx="43" cy="43" r="42" stroke="#0039A9" stroke-width="2"/><path d="M43.5 68.734l-.909-1.315c-.683-.99-16.758-24.368-16.758-33.752C25.834 23.926 33.76 16 43.5 16c9.741 0 17.667 7.926 17.667 17.667 0 9.384-16.075 32.761-16.758 33.752l-.909 1.315zm0-50.526c-8.524 0-15.458 6.934-15.458 15.459 0 7.494 12.019 26.008 15.458 31.153 3.44-5.145 15.459-23.66 15.459-31.153 0-8.525-6.935-15.459-15.459-15.459z" fill="#0039A9"/><path d="M43.5 41.396c-4.26 0-7.729-3.467-7.729-7.73 0-4.261 3.468-7.728 7.73-7.728 4.26 0 7.728 3.467 7.728 7.729 0 4.262-3.468 7.729-7.729 7.729zm0-13.25a5.527 5.527 0 00-5.52 5.52 5.527 5.527 0 005.52 5.522 5.527 5.527 0 005.521-5.521 5.527 5.527 0 00-5.52-5.521z" fill="#0039A9"/></svg>