<svg width="86" height="86" fill="none" xmlns="http://www.w3.org/2000/svg"><circle cx="43" cy="43" r="42" stroke="#0039A9" stroke-width="2"/><path d="M46.004 50.276a1.104 1.104 0 00-1.563 0l-4.526 4.525c-.565.566-3.46-.222-6.465-3.227-3.006-3.006-3.805-5.9-3.228-6.466l4.525-4.525c.21-.211.322-.488.322-.788 0-.3-.122-.577-.322-.787L21.671 25.954a1.105 1.105 0 00-1.564 0l-3.372 3.371c-2.462 2.463-2.606 6.843-.41 12.322 2.085 5.169 6.034 10.825 11.124 15.916 7.997 7.996 16.78 12.654 22.848 12.654 2.218 0 4.081-.62 5.4-1.94l3.372-3.372c.211-.21.322-.488.322-.787 0-.3-.122-.577-.322-.788L46.005 50.276zm8.119 16.426c-3.471 3.471-14.396 0-25.11-10.714-4.89-4.891-8.662-10.281-10.636-15.172-1.819-4.537-1.841-8.163-.078-9.927l2.585-2.584 11.49 11.49-3.738 3.738c-2.074 2.074.122 6.5 3.227 9.605 3.117 3.116 7.531 5.301 9.605 3.227l3.738-3.738 11.49 11.49-2.573 2.585zM41.89 14.785c-.61 0-1.11.5-1.11 1.11 0 .61.5 1.108 1.11 1.108 14.396 0 26.119 11.712 26.119 26.12 0 .61.499 1.108 1.109 1.108s1.109-.499 1.109-1.109c0-15.627-12.71-28.337-28.337-28.337z" fill="#0039A9"/><path d="M41.89 22.559c-.61 0-1.11.499-1.11 1.109s.5 1.109 1.11 1.109c10.115 0 18.333 8.23 18.333 18.333 0 .61.5 1.11 1.11 1.11.61 0 1.108-.5 1.108-1.11.011-11.324-9.216-20.551-20.551-20.551z" fill="#0039A9"/><path d="M52.448 43.109c0 .61.5 1.109 1.11 1.109.61 0 1.109-.5 1.109-1.11 0-7.042-5.734-12.776-12.777-12.776-.61 0-1.11.5-1.11 1.11 0 .61.5 1.108 1.11 1.108 5.823.011 10.558 4.747 10.558 10.559z" fill="#0039A9"/></svg>