<svg width="86" height="86" fill="none" xmlns="http://www.w3.org/2000/svg"><path d="M24.333 24.332c-3.858 0-7 3.142-7 7v23.333c0 3.858 3.142 7 7 7h37.333c3.858 0 7-3.142 7-7V31.332c0-3.858-3.142-7-7-7H24.333zm0 2.333h37.333a4.631 4.631 0 014.667 4.667v23.333a4.631 4.631 0 01-4.667 4.667H24.333a4.631 4.631 0 01-4.667-4.667V31.332a4.631 4.631 0 014.667-4.667z" fill="#0039A9"/><path d="M25.534 31.332a1.166 1.166 0 00-.86 1.992l14 14c2.38 2.379 6.272 2.379 8.65 0l14-14a1.167 1.167 0 10-1.65-1.65l-14 14a3.766 3.766 0 01-5.35 0l-14-14a1.167 1.167 0 00-.79-.341z" fill="#0039A9"/><circle cx="43" cy="43" r="42" stroke="#0039A9" stroke-width="2"/></svg>