<svg width="106" height="106" fill="none" xmlns="http://www.w3.org/2000/svg"><path d="M104.947 1.967a1.118 1.118 0 00-.832-.858C90.387-2.247 58.67 9.713 41.485 26.891a74.294 74.294 0 00-8.35 9.867c-5.3-.469-10.6-.077-15.115 1.891C5.276 44.258 1.566 58.892.533 65.188a2.26 2.26 0 002.472 2.625l20.464-2.257a45.11 45.11 0 00.279 4.617 4.577 4.577 0 001.335 2.812l7.925 7.906a4.592 4.592 0 002.812 1.336 45.39 45.39 0 004.592.279l-2.246 20.437a2.26 2.26 0 002.625 2.473c6.284-1.008 20.944-4.718 26.52-17.461 1.969-4.517 2.372-9.79 1.917-15.064a74.447 74.447 0 009.893-8.353c17.238-17.151 29.13-48.161 25.826-62.57zm-43.024 42.11a11.25 11.25 0 1115.904 0 11.236 11.236 0 01-15.904 0z" fill="#FE9E45"/></svg>