<svg width="86" height="90" fill="none" xmlns="http://www.w3.org/2000/svg"><path fill-rule="evenodd" clip-rule="evenodd" d="M43.097 0C31.805 0 21.517 3.73 15.43 6.777c-.55.276-1.063.545-1.54.805-.945.516-1.75.996-2.39 1.418l6.925 10.195 3.26 1.297c12.74 6.428 29.825 6.428 42.567 0l3.7-1.92L74.5 9a38.777 38.777 0 00-4.223-2.393C64.22 3.592 54.177 0 43.1 0h-.003zM26.992 11.54a61.416 61.416 0 01-7.252-1.82c5.702-2.533 14.2-5.22 23.357-5.22 6.343 0 12.34 1.29 17.3 2.925-5.812.817-12.015 2.205-17.925 3.913-4.65 1.345-10.085 1.2-15.48.202zm39.9 12.66l-.615.31c-14.015 7.07-32.605 7.07-46.62 0l-.582-.295C-1.98 47.318-18.055 89.993 43.097 89.993c61.153 0 44.685-43.473 23.795-65.793zM40.5 45a5 5 0 000 10V45zm5-5v-2.5h-5V40a10 10 0 000 20v10a5.005 5.005 0 01-4.718-3.332 2.499 2.499 0 10-4.712 1.664A10.002 10.002 0 0040.5 75v2.5h5V75a10 10 0 000-20V45a5.005 5.005 0 014.717 3.333 2.5 2.5 0 104.713-1.666A10.002 10.002 0 0045.5 40zm0 20v10a5 5 0 000-10z" fill="#FE9E45"/></svg>