<svg width="300" height="300" fill="none" xmlns="http://www.w3.org/2000/svg"><g clip-path="url(#clip0)"><path d="M-26.667 6.667h53.334V-6.667h-53.334V6.667zm13.334-8.334H10v3.334h-23.333v-3.334zm-6.667 0h3.333v3.334H-20v-3.334zM-26.667 20a3.333 3.333 0 003.334 3.333h46.666A3.333 3.333 0 0026.667 20V10h-53.334v10zm13.334-5H10v3.333h-23.333V15zM-20 15h3.333v3.333H-20V15zm293.333-8.333h53.334V-6.667h-53.334V6.667zm13.334-8.334H310v3.334h-23.333v-3.334zm-6.667 0h3.333v3.334H280v-3.334zM273.333 20a3.334 3.334 0 003.334 3.333h46.666A3.333 3.333 0 00326.667 20V10h-53.334v10zm13.334-5H310v3.333h-23.333V15zM280 15h3.333v3.333H280V15zm-6.667 291.667h53.334v-13.334h-53.334v13.334zm13.334-8.334H310v3.334h-23.333v-3.334zm-6.667 0h3.333v3.334H280v-3.334zm43.333-21.666h-46.666a3.333 3.333 0 00-3.334 3.333v10h53.334v-10a3.334 3.334 0 00-3.334-3.333zm-40 8.333H280v-3.333h3.333V285zM310 285h-23.333v-3.333H310V285zm-336.667 21.667h53.334v-13.334h-53.334v13.334zm13.334-8.334H10v3.334h-23.333v-3.334zm-6.667 0h3.333v3.334H-20v-3.334zm43.333-21.666h-46.666A3.334 3.334 0 00-26.667 280v10h53.334v-10a3.333 3.333 0 00-3.334-3.333zm-40 8.333H-20v-3.333h3.333V285zM10 285h-23.333v-3.333H10V285z" fill="#D3D3D3"/><path fill-rule="evenodd" clip-rule="evenodd" d="M91.813 205.75h24.375l.937.938v12.187h-1.875v-5.625h-22.5v13.125h13.125v1.875H91.812l-.937-.938v-20.624l.938-.938zm.937 5.625h22.5v-3.75h-22.5v3.75zm9.375 13.125v-2.051a3.056 3.056 0 01-.879-.497l-1.772 1.011-.938-1.613 1.757-1.026a2.94 2.94 0 010-1.025l-1.757-1.024.938-1.612 1.772 1.012c.283-.225.577-.392.879-.499v-2.051H104v2.051c.321.111.619.279.879.497l1.772-1.01.938 1.612-1.757 1.026c.06.338.06.685 0 1.023l1.757 1.026-.938 1.613-1.772-1.013a3.413 3.413 0 01-.879.499v2.051h-1.875zm-.469-4.688c0 .391.137.722.411.996a1.36 1.36 0 00.995.411 1.36 1.36 0 00.996-.411 1.36 1.36 0 00.411-.996 1.36 1.36 0 00-.411-.995 1.36 1.36 0 00-.996-.411 1.36 1.36 0 00-.995.411 1.36 1.36 0 00-.411.995zm10.001 10.313v-2.051a3.082 3.082 0 01-.879-.497l-1.772 1.011-.937-1.613 1.758-1.026a2.99 2.99 0 010-1.025l-1.758-1.024.937-1.613 1.772 1.013c.283-.225.578-.392.881-.499v-2.051h1.875v2.051c.321.111.618.28.878.497l1.772-1.011.937 1.613-1.757 1.026c.06.338.06.685 0 1.023l1.757 1.026-.937 1.613-1.772-1.013a3.418 3.418 0 01-.88.499v2.051h-1.875zm-.468-4.687c0 .389.137.721.41.995a1.355 1.355 0 00.996.411 1.368 1.368 0 00.996-.411 1.36 1.36 0 00.412-.995 1.353 1.353 0 00-.412-.996 1.347 1.347 0 00-.994-.411 1.352 1.352 0 00-.998.411 1.352 1.352 0 00-.41.996z" fill="#D3D3D3"/><path d="M40.375 118.777h-18.75a.392.392 0 00-.39.391v19.629c0 .215.175.391.39.391h18.75c.215 0 .39-.176.39-.391v-19.629a.392.392 0 00-.39-.391zm-16.016 3.125h13.282v5.713H24.359v-5.713zm13.282 14.16H24.359v-5.712h13.282v5.712z" fill="#D3D3D3"/><path d="M26.703 133.523a1.561 1.561 0 103.123.001 1.561 1.561 0 00-3.123-.001zm0-8.691a1.563 1.563 0 103.127 0 1.563 1.563 0 00-3.127 0z" fill="#D3D3D3"/><path d="M45.62 115.013c-2.237-5.904-7.935-10.103-14.61-10.103s-12.373 4.194-14.61 10.098a9.783 9.783 0 00-7.275 9.512c.03 5.097 3.984 9.243 8.965 9.687a.39.39 0 00.425-.391v-2.949a.39.39 0 00-.342-.386 6.091 6.091 0 01-3.52-1.684 6.02 6.02 0 01-1.817-4.326 6.02 6.02 0 011.28-3.731 6.08 6.08 0 013.227-2.134l1.85-.488.68-1.792a11.761 11.761 0 011.742-3.1 12.015 12.015 0 012.559-2.442 11.823 11.823 0 016.836-2.158c2.466 0 4.829.747 6.836 2.163a11.92 11.92 0 012.558 2.441 11.786 11.786 0 011.743 3.101l.674 1.787 1.846.488a6.065 6.065 0 014.497 5.86 6.01 6.01 0 01-1.816 4.326 6.082 6.082 0 01-3.511 1.685.385.385 0 00-.337.385v2.954c0 .23.2.411.43.391 4.965-.449 8.91-4.59 8.945-9.678a9.781 9.781 0 00-7.256-9.516zm186.696 16.976a.375.375 0 00-.278-.286c-4.575-1.119-15.148 2.868-20.876 8.594a24.76 24.76 0 00-2.784 3.289c-1.766-.156-3.533-.026-5.038.63-4.248 1.87-5.485 6.748-5.829 8.846a.76.76 0 00.194.643.751.751 0 00.63.232l6.821-.752c.005.514.036 1.028.093 1.539.035.355.192.687.446.938l2.641 2.635c.251.253.583.41.937.445.509.057 1.02.088 1.531.093l-.749 6.813a.754.754 0 00.875.824c2.095-.336 6.982-1.573 8.84-5.82.657-1.506.791-3.264.639-5.022a24.764 24.764 0 003.298-2.784c5.746-5.717 9.71-16.054 8.609-20.857zm-14.342 14.037a3.746 3.746 0 01.567-5.771 3.752 3.752 0 015.549 1.684 3.746 3.746 0 01-.814 4.087 3.741 3.741 0 01-2.651 1.099 3.742 3.742 0 01-2.651-1.099z" fill="#D3D3D3"/><path d="M208.156 160.205c-.428.429-1.115.597-1.941.74-1.857.316-3.497-1.289-3.163-3.166.127-.712.503-1.709.738-1.944a.34.34 0 00.067-.394.338.338 0 00-.352-.188 4.685 4.685 0 00-2.745 1.338c-1.837 1.838-2.01 8.659-2.01 8.659s6.825-.173 8.662-2.012a4.662 4.662 0 001.338-2.747c.029-.326-.369-.521-.594-.286zM140.75 23.512a.959.959 0 01-.901-.658.96.96 0 01.326-1.067A19.326 19.326 0 01152 18.25c3.325 0 8.1.562 11.875 3.275a.964.964 0 01.225 1.337.974.974 0 01-1.35.213A18.75 18.75 0 00152 20.162a17.501 17.501 0 00-10.625 3.15.925.925 0 01-.625.2z" fill="#D3D3D3"/><path d="M167.287 32.325a.975.975 0 01-.787-.413c-2.163-3.05-6.025-7.112-14.5-7.112a17.5 17.5 0 00-14.538 7.125.961.961 0 01-1.337.213.955.955 0 01-.399-.653.95.95 0 01.211-.735A19.432 19.432 0 01152 22.887c7.012 0 12.262 2.6 16.05 7.925a.962.962 0 01-.763 1.513z" fill="#D3D3D3"/><path d="M147.35 55.75a.972.972 0 01-.9-.612.933.933 0 01.225-1.053.935.935 0 01.325-.197c5.462-2.1 8.75-6.4 8.75-11.513a3.51 3.51 0 00-1.015-2.734A3.5 3.5 0 00152 38.625c-2.325 0-3.45 1.25-3.75 4.188a5.338 5.338 0 01-5.65 4.787 5.338 5.338 0 01-5.4-5.738A14.636 14.636 0 01152 27.487 15.002 15.002 0 01167 42.4a23.315 23.315 0 01-1.738 8.125.97.97 0 01-1.25.513.953.953 0 01-.512-1.25 21.556 21.556 0 001.587-7.388A13.06 13.06 0 00152 29.4a12.727 12.727 0 00-12.975 12.5 3.458 3.458 0 00.885 2.696 3.462 3.462 0 002.602 1.129 3.426 3.426 0 003.75-3.1c.45-3.888 2.363-5.862 5.7-5.862a5.389 5.389 0 015.65 5.7c0 5.925-3.75 10.9-10 13.287-.087.01-.175.01-.262 0z" fill="#D3D3D3"/><path d="M156.712 54.85a1.014 1.014 0 01-.65-.25.946.946 0 01-.208-1.04.948.948 0 01.208-.31 15.782 15.782 0 004.425-10.85c0-1.95-.6-8.313-8.375-8.313a8.538 8.538 0 00-6.175 2.338A7.71 7.71 0 00143.65 42a.962.962 0 01-.963.95.951.951 0 01-.962-.95 9.66 9.66 0 012.775-6.925 10.43 10.43 0 017.5-2.9c7.6 0 10.3 5.5 10.3 10.225a17.61 17.61 0 01-4.875 12.1.938.938 0 01-.713.35z" fill="#D3D3D3"/><path d="M142.825 51.675a17.684 17.684 0 01-1.95-.112.958.958 0 01-.506-1.708.962.962 0 01.719-.192c3.112.35 5.562-.2 7.3-1.65a7.973 7.973 0 002.65-5.663.942.942 0 01.322-.663.946.946 0 01.703-.224.974.974 0 01.9 1.012 9.867 9.867 0 01-3.35 7.025 10.252 10.252 0 01-6.788 2.175z" fill="#D3D3D3"/><path stroke="#D3D3D3" d="M174.354-15.354l109 109"/><path stroke="#D3D3D3" stroke-width="2" d="M-25.293 178.293l70 70"/></g><defs><clipPath id="clip0"><path fill="#fff" d="M0 0h300v300H0z"/></clipPath></defs></svg>