<svg width="25" height="19" fill="none" xmlns="http://www.w3.org/2000/svg"><path fill-rule="evenodd" clip-rule="evenodd" d="M22.916.125c1.15 0 2.084.933 2.084 2.084V16.79c0 1.15-.933 2.084-2.084 2.084H2.084A2.084 2.084 0 010 16.791V2.21C0 1.059.932.125 2.084.125h20.832zM8.96 11.16l-6.138 6.065H21.98l-6.071-6.003-3.408 2.36-3.54-2.422zM23.3 6.115l-5.995 4.145 5.995 5.92V6.115zm-21.599.076v9.795l5.858-5.789L1.7 6.191zm21.195-4.415H2.122a.448.448 0 00-.312.108.325.325 0 00-.106.277v2.025L12.5 11.57l10.805-7.456V2.249c.001-.168-.038-.289-.115-.365a.383.383 0 00-.293-.108z" fill="#fff"/></svg>