<svg width="39" height="39" fill="none" xmlns="http://www.w3.org/2000/svg"><path d="M25.125 28.875a1.875 1.875 0 100 3.75 1.875 1.875 0 000-3.75zm-11.25 0H8.25a1.875 1.875 0 100 3.75h5.625a1.875 1.875 0 100-3.75zm16.875 0a1.875 1.875 0 100 3.75 1.875 1.875 0 000-3.75zm-5.625-11.25a1.875 1.875 0 100 3.75 1.875 1.875 0 000-3.75zm-11.25 0H8.25a1.875 1.875 0 100 3.75h5.625a1.875 1.875 0 100-3.75zM30.75 6.375a1.875 1.875 0 100 3.75 1.875 1.875 0 000-3.75zm0 11.25a1.875 1.875 0 100 3.75 1.875 1.875 0 000-3.75zm7.5-11.25A5.625 5.625 0 0032.625.75H6.375A5.625 5.625 0 00.75 6.375v3.75a5.625 5.625 0 001.462 3.75 5.625 5.625 0 00-1.462 3.75v3.75a5.625 5.625 0 001.462 3.75 5.625 5.625 0 00-1.462 3.75v3.75a5.625 5.625 0 005.625 5.625h26.25a5.625 5.625 0 005.625-5.625v-3.75a5.625 5.625 0 00-1.462-3.75 5.625 5.625 0 001.462-3.75v-3.75a5.625 5.625 0 00-1.462-3.75 5.625 5.625 0 001.462-3.75v-3.75zm-3.75 26.25a1.875 1.875 0 01-1.875 1.875H6.375A1.875 1.875 0 014.5 32.625v-3.75A1.875 1.875 0 016.375 27h26.25a1.875 1.875 0 011.875 1.875v3.75zm0-11.25a1.875 1.875 0 01-1.875 1.875H6.375A1.875 1.875 0 014.5 21.375v-3.75a1.875 1.875 0 011.875-1.875h26.25a1.875 1.875 0 011.875 1.875v3.75zm0-11.25A1.875 1.875 0 0132.625 12H6.375A1.875 1.875 0 014.5 10.125v-3.75A1.875 1.875 0 016.375 4.5h26.25A1.875 1.875 0 0134.5 6.375v3.75zm-9.375-3.75a1.875 1.875 0 100 3.75 1.875 1.875 0 000-3.75zm-11.25 0H8.25a1.875 1.875 0 100 3.75h5.625a1.875 1.875 0 100-3.75z" fill="#fff"/></svg>