<svg width="168" height="150" fill="none" xmlns="http://www.w3.org/2000/svg"><path d="M84 0C38.166 0 .667 30 .667 66.667.667 85 9.833 101.667 24 112.5c0 5-3.334 18.333-23.333 37.5 20-.833 38.333-8.333 54.166-20.833C64 131.667 74 133.333 84 133.333c45.833 0 83.333-30 83.333-66.666C167.333 30 129.833 0 84 0zm0 116.667c-36.667 0-66.667-22.5-66.667-50s30-50 66.667-50 66.667 22.5 66.667 50-30 50-66.667 50zm1.666-87.5c-7.5 0-13.333 1.666-17.5 4.166-5 3.334-7.5 8.334-6.666 14.167h16.666c0-2.5.834-4.167 2.5-5 1.667-.833 3.334-1.667 5.834-1.667 2.5 0 5 .834 6.666 2.5 1.667 1.667 2.5 3.334 2.5 5.834 0 2.5-.833 4.166-1.666 5.833-1.667 1.667-3.334 3.333-5 4.167-4.167 2.5-7.5 5-9.167 6.666-3.333 2.5-4.166 5-4.166 9.167h16.666c0-2.5.834-4.167.834-5.833.833-1.667 2.5-2.5 4.166-4.167 4.167-1.667 6.667-4.167 9.167-7.5s3.333-6.667 3.333-10c0-5.833-2.5-10.833-6.666-14.167-3.334-2.5-10-4.166-17.5-4.166zm-10 54.166V100h16.667V83.333H75.667z" fill="#FE9E45"/></svg>