<svg width="200" height="200" fill="none" xmlns="http://www.w3.org/2000/svg"><path d="M99.375 185.625c-43.594 0-90.625-27.344-90.625-87.344 0-60 47.031-87.344 90.625-87.344 24.219 0 46.563 7.97 63.125 22.5C180.469 49.376 190 71.876 190 98.281c0 26.407-9.531 48.75-27.5 64.688-16.562 14.531-39.062 22.656-63.125 22.656z" fill="#FE9E45"/><path d="M99.375 185.625c-43.594 0-90.625-27.344-90.625-87.344 0-60 47.031-87.344 90.625-87.344 24.219 0 46.563 7.97 63.125 22.5C180.469 49.376 190 71.876 190 98.281c0 26.407-9.531 48.75-27.5 64.688-16.562 14.531-39.062 22.656-63.125 22.656z" fill="#FE9E45"/><path d="M174.203 46.36c8.328 13.437 12.672 29.437 12.672 47.234 0 26.406-9.531 48.75-27.5 64.687-16.563 14.531-39.063 22.657-63.125 22.657-28.219 0-57.813-11.485-75.281-35.844 16.812 27.593 48.437 40.531 78.406 40.531 24.063 0 46.563-8.125 63.125-22.656 17.969-15.938 27.5-38.281 27.5-64.688 0-19.906-5.422-37.594-15.797-51.922z" fill="#DD6E25"/><path opacity=".66" d="M10.125 117.359c1.563-4.078 8.469-4.14 13.578-1.671 9.89 4.796 8.719 15.296 13.672 17.39 4.953 2.094 20.594-10.734 42.578-12.765 2.469-.235 17.047-2.063 18.484 4.062.563 2.422-3.562 2.891-3.562 2.891-8.938 3.312-18.031 6.687-26.031 11.922-9.078 5.921-17.016 14.296-27.563 16.765-4.11.953-8.75.813-12.093-1.734-4.157-3.125-5.079-8.86-6.594-13.844a45.58 45.58 0 00-8.375-15.625" fill="url(#paint0_linear)"/><path d="M9.938 117.344c-2.844 3.453 3.203 12.625 4.28 17.296 2.595 11.282 0 14.063-.202 24.094-.172 11.031 3.125 20.313 11.531 26.235 7.906 5.609 16.61 6.25 28.797 2.656 12.187-3.594 20.422-5.328 21.047-11.328a5.738 5.738 0 00-3.25-5.985 5.603 5.603 0 002.734-2.797c2.906-6.937-2.89-8.406-2.89-8.406.796-.953 1.468-2 2-3.125 1.734-3.453 1.453-8.14-3.547-9.672-2.297-.703-2.922-.328-2.922-.328a25.355 25.355 0 018.36-5.703c8.405-3.609 18.374-5.797 20.858-7.906 3.61-3.125 3.829-9.141-2.546-10.938-9.157-2.687-26 3.563-36.25 10.078-10.25 6.516-19.657 10.032-22.782 8.844-3.125-1.187-5.062-3.125-6.25-7.812-2.203-8.719-3.906-12.094-7.64-15.36-3.094-2.656-9.14-2.5-11.328.157z" fill="#FFBB7C"/><path d="M60.75 151.219s-2.297-1.563 6.875-8.891c6.25-5.016 9.86-5.922 17.344-7.812 15.125-3.704 14.172-8.469 14.172-8.469.812 7.015-6.125 8.578-11.203 10.172-.532.156-1.032.359-1.563.484-17.39 4.438-23.469 15.906-25.625 14.516z" fill="url(#paint1_linear)"/><path d="M75 168.609a9.534 9.534 0 001.016-7.515 7.245 7.245 0 00-2.75-3.672c.187-.25.375-.484.546-.766a7.696 7.696 0 00.547-7.265 7.416 7.416 0 00-5.296-3.375 5.738 5.738 0 013.03 3.64 11.01 11.01 0 01-.78 5.672 7.34 7.34 0 01-5.844 4.485c-3.781.75-2.625 2.312-2.625 2.312.328 1.25 4.797.094 8.187-2.438.953.5 1.672 1.36 2.016 2.376.36 1.578.14 3.25-.61 4.687a8.566 8.566 0 01-5.515 4.688c-3.36.921-2.438 2.156-2.438 2.156s.157 2.656 7.063-1.719c.812 1.563 1.89 5.047-.266 7.297-7.312 7.703-28.86 10.672-28.86 10.672 10.938 0 25.97-4.219 30.626-8.078a7.537 7.537 0 002.89-5.875 7.115 7.115 0 00-2.14-5.766c.437-.469.844-.969 1.203-1.516z" fill="url(#paint2_linear)"/><path d="M120.109 111.422a2.938 2.938 0 01-1.359-.625 51.446 51.446 0 00-24.375-10.719 51.265 51.265 0 00-26.563 2.437c-.468.188-.968.25-1.468.172a2.88 2.88 0 01-2.281-2.078 2.782 2.782 0 01.906-2.89c16.562-13.75 41.125-11.47 54.875 5.093a41.428 41.428 0 013.094 4.282 2.804 2.804 0 010 3.031 2.882 2.882 0 01-2.829 1.297zm6.094-62.812c6.547 0 12.5 5.53 12.5 14.718 0 9.188-5.953 14.703-12.5 14.703s-12.5-5.531-12.5-14.703 5.953-14.719 12.5-14.719zM72.094 34.375c-6.547 0-12.5 5.531-12.5 14.703s5.953 14.719 12.5 14.719c6.562 0 12.5-5.531 12.5-14.719 0-9.187-5.938-14.703-12.5-14.703zM62.078 16.61a4.152 4.152 0 01-.25-3.829 4.02 4.02 0 013.125-2.25 33.426 33.426 0 0124.266 5.61c2.64 1.812 4.984 4 6.969 6.515.125.157.234.328.343.516a3.85 3.85 0 01-.828 5.078 4.297 4.297 0 01-5.625-.125l.656-1.063-.796.938a39.781 39.781 0 00-24.313-9.25 4.178 4.178 0 01-3.61-2.063l.063-.078zm83.235 27.953a4.149 4.149 0 002.093-3.125 4.054 4.054 0 00-1.562-3.5 33.445 33.445 0 00-23.969-7.157 31.713 31.713 0 00-9.281 2.22l-.563.265c-1.734.922-2.5 3-1.781 4.828a4.285 4.285 0 004.922 2.656V39.5l.219 1.219a39.774 39.774 0 0125.687 3.86 4.225 4.225 0 004.172 0l.063-.016z" fill="#422B0D"/><defs><linearGradient id="paint0_linear" x1="54.645" y1="166.266" x2="54.255" y2="114.109" gradientUnits="userSpaceOnUse"><stop stop-color="#BF360C"/><stop offset="1" stop-color="#BF360C" stop-opacity=".2"/></linearGradient><linearGradient id="paint1_linear" x1="61.377" y1="147.864" x2="100.736" y2="128.317" gradientUnits="userSpaceOnUse"><stop offset=".13" stop-color="#DA6727"/><stop offset="1" stop-color="#FFC400"/></linearGradient><linearGradient id="paint2_linear" x1="59.342" y1="186.672" x2="59.67" y2="127.344" gradientUnits="userSpaceOnUse"><stop offset=".13" stop-color="#DA6727"/><stop offset="1" stop-color="#FFC400"/></linearGradient></defs></svg>